<?xml version="1.0" encoding="UTF-8"?><svg id="Layer_1" xmlns="http://www.w3.org/2000/svg" xmlns:xlink="http://www.w3.org/1999/xlink" viewBox="0 0 575.64 356.06"><defs><style>.cls-1{fill:url(#linear-gradient);}.cls-2{fill:#0098db;}.cls-3{fill:#fff;}.cls-4{fill:url(#linear-gradient-2);}</style><linearGradient id="linear-gradient" x1="494.39" y1="337.84" x2="494.39" y2="137.21" gradientUnits="userSpaceOnUse"><stop offset=".5" stop-color="#fddb07"/><stop offset="1" stop-color="#faa61f"/></linearGradient><linearGradient id="linear-gradient-2" x1="451.94" y1="287.46" x2="575.64" y2="287.46" gradientUnits="userSpaceOnUse"><stop offset="0" stop-color="#1eacc2"/><stop offset="1" stop-color="#22bcb0"/></linearGradient></defs><g id="SAN_DIEGO"><path class="cls-2" d="m436.15,221.6c17.7-.1,31.68,5.58,43.2,17.01,9.53,9.46,15.18,20.99,16.59,34.38,2,19.05-3.66,35.56-17.4,48.99-11.97,11.7-26.62,17.11-43.29,16.4-14.66-.62-27.4-6.2-37.99-16.42-9.78-9.43-15.71-20.98-17.34-34.4-2.26-18.51,3.08-34.76,15.98-48.37,9.86-10.41,25.54-18.05,40.25-17.59Zm1.82,94.06c5.03.26,10.01-.88,14.64-3.26,12.3-6.32,18.43-16.73,19.54-30.27.32-3.89,0-7.8-1.11-11.57-4.08-13.87-12.69-22.99-27.23-25.94-4.87-.99-9.67-.89-14.41.44-11.98,3.36-19.75,11.22-23.85,22.8-1.85,5.24-2.46,10.66-1.74,16.21.46,3.55,1.28,7,2.62,10.33,4.94,12.21,17.18,21.58,31.54,21.24Z"/><path class="cls-2" d="m359.13,249.53c-6.31,4.58-12.53,9.1-18.61,13.51-1.89-2.47-3.61-5.02-5.65-7.29-4.2-4.66-9.41-7.81-15.41-9.7-4.55-1.43-9.27-1.87-13.9-1.29-10.9,1.37-19.14,7.09-24.86,16.43-2.8,4.58-4.44,9.58-5.02,14.92-.16,1.49-.45,2.97-.43,4.46.02,1.72.28,3.43.49,5.15.46,3.73,1.49,7.3,3.12,10.68,4.82,10.01,12.51,16.54,23.38,19.21,2.71.67,5.46.9,8.22.76,7.71-.37,14.81-2.5,20.92-7.42,3.77-3.04,6.59-6.81,8.56-11.22.21-.46.31-.96.49-1.52h-30.4v-20.91h57.59c0,2.81.13,5.59-.04,8.36-.16,2.6-.46,5.22-.98,7.78-4.71,23.21-22.51,41.53-45.27,46.35-5.55,1.18-11.17,1.56-16.74,1.08-13.53-1.17-25.37-6.4-35.27-15.8-6.2-5.89-10.98-12.79-13.94-20.8-1.45-3.93-2.41-8.05-3.37-12.14-1-4.24-1.05-8.61-.75-12.92,1.01-14.25,6.23-26.76,16.11-37.18,8.19-8.63,18.15-14.16,29.79-16.74,5.25-1.16,10.55-1.4,15.86-1.08,5.5.33,10.91,1.37,16.12,3.26,12.47,4.52,22.41,12.25,29.58,23.45.11.17.21.33.39.64Z"/><path class="cls-2" d="m170.01,223.51h58.8v21.15h-35.19v21.08h40.87v21.11h-40.88v28.31h46.4v21.27h-70v-112.91Z"/><path class="cls-2" d="m145.84,336.44h-23.37v-112.91h23.37v112.91Z"/><path class="cls-2" d="m.15,223.44c4.04,0,8.03,0,12.03,0,11.23,0,22.47-.02,33.7.01,4.1.01,8.15.52,12.2,1.26,12.03,2.2,22.3,7.65,30.95,16.2,4.87,4.82,8.67,10.41,11.39,16.71,1.86,4.29,3.14,8.73,3.81,13.39.58,4.05,1.01,8.09.67,12.17-1.93,23.11-13.81,39.12-34.83,48.51-4.47,1.99-9.16,3.34-14.06,3.87-2.5.27-5,.67-7.5.69-16.05.12-32.11.16-48.16.22-.04,0-.07-.02-.2-.05v-112.98Zm23.49,21.43v70.31h1.25c7,0,13.99-.03,20.99.01,3.1.02,6.13-.4,9.12-1.16,6.38-1.61,11.87-4.78,16.37-9.57,5.61-5.96,8.68-13.09,9.26-21.23.19-2.68-.11-5.4-.2-8.1-.12-3.75-1.26-7.27-2.84-10.59-5.73-12-15.43-18.62-28.55-19.57-8.38-.61-16.85-.11-25.4-.11Z"/><path class="cls-2" d="m290.03,150.63c.01-1,.03-2,.03-3,0-20.15,0-40.29,0-60.44v-1.45h23.5v114.94c-26.79-22.29-53.45-44.48-80.25-66.78v64.75h-23.53v-115.05c2.32,1.94,4.54,3.78,6.76,5.64,23.4,19.65,46.8,39.3,70.21,58.95,1.01.85,2.03,1.67,3.05,2.5.07.04.15.07.22.11,0-.06,0-.13,0-.19Z"/><path class="cls-2" d="m76,198.59c19.83-38.26,39.65-76.47,59.59-114.93,19.96,38.39,39.83,76.63,59.78,115-.54.03-.92.07-1.29.07-7.76,0-15.51-.01-23.27.02-.85,0-1.27-.26-1.63-1.02-2.16-4.49-4.38-8.94-6.54-13.42-.29-.6-.61-.79-1.26-.79-17.79.02-35.58.02-53.38.02-.12,0-.24.02-.44.03-1.57,3.27-3.16,6.57-4.75,9.87-.74,1.54-1.45,3.1-2.24,4.62-.16.31-.63.64-.95.64-7.72.03-15.43.02-23.15.02-.11,0-.22-.06-.47-.14Zm58.68-71.38c-5.69,11.79-11.27,23.34-16.89,34.99h34.08c-5.73-11.66-11.39-23.19-17.19-34.99Z"/><path class="cls-2" d="m64.86,98.32c-6.18,4.51-12.3,8.98-18.36,13.4-1.67-1.15-3.22-2.41-4.94-3.37-2.78-1.55-5.78-2.48-9.01-2.04-4.17.56-7.5,2.96-8.5,7.75-1.07,5.15,1.85,9.08,5.85,10.59,2.46.92,5.09,1.45,7.69,1.95,1.88.36,3.84.3,5.73.59,6.83,1.04,13.13,3.4,18.6,7.72,6.57,5.19,10.68,11.95,12.11,20.15.65,3.72.87,7.63.55,11.39-1.38,16.37-12.96,28.5-27.19,32.67-3.14.92-6.35,1.24-9.61,1.53-3.38.29-6.66-.08-9.9-.64-6.03-1.03-11.68-3.25-16.88-6.53-4.08-2.58-7.7-5.69-11.03-9.34,6.49-4.77,12.93-9.5,19.26-14.15,1.37,1.29,2.67,2.59,4.04,3.8,5.38,4.73,15.07,5.64,20.42,2.3,3.39-2.12,5.82-5.06,6.35-9.01.95-7.02-1.29-13.55-9.69-16.71-3.33-1.25-6.78-1.49-10.19-2.12-12.18-2.25-24.76-9.3-28.27-24.27-.71-3.03-1.1-6.09-.88-9.17.61-8.5,4.13-15.66,10.31-21.51,4.55-4.31,9.91-7.23,15.96-8.76,3.41-.86,6.92-.93,10.48-.62,5.42.48,10.51,1.86,15.26,4.48,4.53,2.49,8.36,5.84,11.8,9.92Z"/></g><g id="The_City_of"><path class="cls-3" d="m319.28,20.06c-1.97,0-3.88.02-5.8-.01-.75-.01-1.01.24-1.1,1.01-.43,3.64-.96,7.27-1.4,10.92-.28,2.31-.45,4.63-.71,6.94-.39,3.45-.77,6.91-1.25,10.34-.61,4.33-1.85,8.4-5.31,11.41-2.97,2.58-6.46,3.06-10.21,2.5-.04,0-.08,0-.12-.01q-1.97-.4-1.36-2.37c.31-.98.62-1.96.91-2.87,1.51.31,2.92.61,4.35.89,1.4.27,2.25-.54,2.65-1.7.5-1.45.94-2.94,1.16-4.45.49-3.27.84-6.56,1.22-9.85.42-3.73.78-7.46,1.22-11.18.33-2.76.76-5.51,1.13-8.26.14-1.01.22-2.03.33-3.16h-3.59c-.1-2.45-.13-2.77,1.95-3.33,2.55-.69,2.67-2.55,3.12-4.58.96-4.4,3.18-8.05,7.3-10.2,1.93-1.01,3.98-1.65,6.27-1.11,1.2.28,2.48.22,3.91.32-.69,1.91-1.26,3.5-1.73,4.84-1.47-.27-2.9-.58-4.34-.8-1.39-.21-2.38.52-2.83,1.72-.57,1.53-.96,3.14-1.31,4.74-.26,1.15-.34,2.34-.53,3.69h6.6c-.18,1.59-.34,3.01-.52,4.59Z"/><path class="cls-3" d="m295.73,29.2c0,6.22-1.92,11.65-6.53,15.94-3.56,3.31-7.93,4.57-12.64,4-4.17-.5-7.27-2.78-8.83-6.9-3.07-8.08.19-19.25,6.92-24.03,3.9-2.77,8.18-3.49,12.71-2.48,4.7,1.05,7.13,4.41,8.01,8.96.28,1.47.25,3.01.37,4.51Zm-7.93.09c-.27-1.91-.54-3.82-.81-5.74-.27-1.92-1.01-3.69-2.98-4.23-2.02-.55-4.02-.05-5.32,1.78-.86,1.22-1.68,2.53-2.23,3.91-1.43,3.62-1.97,7.42-1.68,11.29.15,2.06.39,4.17,1,6.13,1.13,3.66,4.73,4.04,7.27,1.82,1.04-.91,1.87-2.2,2.45-3.47,1.66-3.63,2-7.55,2.3-11.52Z"/><path class="cls-3" d="m220.57,57.14c6.85.57,9.76-1.6,11.28-8.44-1.4.36-1.6-.7-1.97-1.61-2.69-6.46-5.4-12.91-8.1-19.36-.67-1.6-1.4-3.19-1.98-4.83-.39-1.09-.99-1.73-2.17-1.8-.35-.02-.69-.18-1.11-.29v-4.2h14.98v4.24c-1.08.22-2.15.45-3.27.68,2.41,6.95,4.8,13.82,7.14,20.56,2-6.69,4.07-13.6,6.18-20.66-1.48-.21-2.82-.39-4.18-.58v-4.25h13.58v4.17c-.17.04-.38.12-.59.13-1.86.04-2.59,1.14-3.19,2.8-1.81,5.09-3.83,10.12-5.77,15.16-2,5.21-3.86,10.48-6.08,15.59-1.01,2.33-2.52,4.56-4.21,6.46-2.6,2.92-6.15,3.32-9.84,2.66-.27-.05-.67-.45-.67-.7-.06-1.91-.03-3.82-.03-5.74Z"/><path class="cls-3" d="m213.69,43.22c.29.67.55,1.41.93,2.08.37.66.15,1.11-.42,1.37-1.46.69-2.89,1.61-4.43,1.89-2.4.44-4.88.66-7.32.57-3.15-.12-5.23-2.82-5.41-6.8-.16-3.71-.12-7.42-.14-11.13-.02-3.31,0-6.62,0-10.04h-4.4c0-.88-.06-1.66.04-2.43.03-.27.46-.67.73-.68,3.91-.23,5.34-2.99,6.37-6.16.31-.96.63-1.92.96-2.92h4.02v7.54h9.61v4.59h-9.34c0,.8,0,1.5,0,2.21.01,5.27.02,10.54.05,15.81,0,.5.14,1,.23,1.5.55,3.34,1.44,4.01,4.77,3.47,1.25-.2,2.47-.57,3.75-.88Z"/><path class="cls-3" d="m173.4,18.8c3.01-.94,6.1-1.98,9.23-2.84.71-.2,1.59.19,2.42.32v28.3c1.44.29,2.83.58,4.26.87v3.16h-16.76c0-.9-.08-1.82.04-2.7.04-.29.55-.65.91-.73,1.15-.26,2.32-.4,3.57-.59v-1.98c0-5.71.02-11.42-.03-17.13,0-.54-.36-1.16-.72-1.61-.41-.52-.96-.98-1.53-1.32-1.42-.87-1.85-2.08-1.39-3.73Z"/><path class="cls-3" d="m185.74,4.66c.01,3.16-2.39,5.38-5.77,5.46-2.25.05-4.94-1.97-4.85-4.55.1-3.03,2.66-5.45,5.88-5.57,2.48-.09,5.27,1.72,4.74,4.66Z"/><path class="cls-3" d="m163.19,37.5h3.98v9.25c-3.21.8-6.43,1.87-9.73,2.37-4.69.7-9.48.74-13.95-1.16-6.61-2.81-10.69-7.82-12.19-14.91-.91-4.28-.78-8.57.54-12.67,2.11-6.56,6.33-11.45,12.68-14.36,3.12-1.43,6.38-2.14,9.84-2.19,4.32-.06,8.5.64,12.8,1.86-.19,3.26-.38,6.55-.57,9.93-1.46,0-2.81.04-4.16-.03-.26-.01-.62-.41-.73-.71-.46-1.19-.9-2.39-1.24-3.61-.25-.93-.77-1.59-1.62-1.93-.94-.38-1.93-.82-2.91-.87-1.94-.1-3.96-.24-5.83.16-4.2.88-6.79,3.79-8.48,7.59-.95,2.13-1.4,4.38-1.72,6.7-.63,4.63.16,9.09,1.79,13.32,1.77,4.6,4.9,8.19,10.11,9.04,2.67.44,5.38.04,7.85-1.24,1.13-.58,1.72-1.6,2.12-2.77.43-1.26.94-2.48,1.44-3.77Z"/><path class="cls-3" d="m110.18,33.26h-20.41c-.34,5.32,2.9,11.27,9.74,11.15,2.73-.05,5.36-.5,7.9-1.46.74-.28,1.16-.31,1.42.57.21.72.58,1.39.91,2.15-1.65,1.43-3.61,2.19-5.64,2.76-2.96.83-6.01,1.32-9.06.99-6.35-.69-11.22-3.7-13.02-10.07-1.97-6.98-1.08-13.61,4.22-19.08,2.4-2.48,5.45-3.81,8.85-4.39,3.03-.52,6-.3,8.83.81,3.71,1.46,5.76,4.43,6.21,8.29.31,2.68.06,5.43.06,8.31Zm-7.91-4.14c0-1.72.17-3.37-.06-4.96-.17-1.15-.75-2.3-1.36-3.33-1.13-1.9-6.11-1.89-7.84-.1-2.28,2.35-2.96,5.24-3.29,8.4h12.55Z"/><path class="cls-3" d="m53.19,44.6c1.1.25,2.13.49,3.21.74v3.27h-15.66c-.04-.09-.1-.15-.11-.22q-.11-3.06,2.96-3.55c.43-.07.85-.17,1.3-.27V8.07c-1.4-.45-2.79-.9-4.23-1.36v-3.43c3.1-.37,6.18-.73,9.27-1.09.27-.03.54-.08.8-.14,1.47-.32,2.4.4,2.39,1.87-.01,3.92,0,7.83-.06,11.75-.02,1.23-.24,2.47-.39,3.9.44-.25.84-.43,1.19-.67,3.86-2.62,8.1-3.63,12.7-2.78,3.73.69,5.49,3.8,5.99,6.93.88,5.53.48,11.09.56,16.65.02,1.6,0,3.19,0,4.9,1.37.27,2.7.53,4.03.8v3.22h-16.57v-3.27c1.4-.25,2.83-.5,4.38-.78,0-.95,0-1.85,0-2.76-.04-4.31-.02-8.62-.15-12.93-.05-1.52-.31-3.08-.77-4.52-.65-2.08-2.21-2.94-4.39-2.97-2-.03-3.99-.03-5.71,1.14-.38.26-.77.84-.78,1.28-.05,6.79-.03,13.59-.03,20.38,0,.12.03.23.07.44Z"/><path class="cls-3" d="m30.05,48.63H8.3v-3.35c2.22-.36,4.48-.73,6.69-1.1V8.31c-2.11.16-4.15.31-6.19.46-.23.02-.46.11-.69.12q-1.99.12-2.65,1.98c-.44,1.24-.88,2.47-1.33,3.75H.01c.2-3.49.4-6.95.6-10.47h36.58v10.43c-1.11.13-2.2.25-3.37.38-.55-1.78-1.06-3.48-1.63-5.16-.12-.35-.46-.85-.74-.87-2.67-.23-5.35-.37-8.11-.54-.02.41-.06.76-.06,1.1,0,11.19,0,22.38-.02,33.57,0,.9.11,1.33,1.22,1.37,1.65.07,3.3.43,4.94.73.24.04.57.44.59.69.07.9.03,1.81.03,2.77Z"/></g><g id="Unicolor_Sails"><path d="m444.64,211.78v-74.55c1.01,0,2.03-.08,3.04.01,3.09.27,6.19.56,9.27.93,21.13,2.56,39.14,11.73,54.64,26.04,10.58,9.77,18.65,21.37,24.35,34.59,2.56,5.93,4.63,12.03,5.86,18.37.69,3.54,1.16,7.13,1.61,10.71.29,2.3.36,4.63.5,6.95.11,1.78.31,3.57.21,5.34-.22,3.92-.42,7.86-.97,11.75-.68,4.76-1.43,9.55-2.64,14.19-3.43,13.11-9.44,25.01-17.78,35.69-10.75,13.78-24.16,24.15-40.27,30.97-4.97,2.1-10.05,3.86-15.33,5.04-.09.02-.21-.04-.52-.11,16.47-6.98,28.5-18.36,35.58-34.63,7.04-16.17,7.4-32.69,1.25-49.19-9.39-25.22-33.09-41.37-58.82-42.13Z"/><path d="m451.94,346.18c32.37-2.77,59.37-16.1,80.05-41.22,20.61-25.03,28.35-54.01,24.85-86.09,3.23.84,14.37,22.78,16.17,31,8.26,37.64-2.88,68.02-33.66,91.21-28.2,18.27-57.37,19.64-87.41,5.1Z"/></g><g id="Color_Sails"><path class="cls-1" d="m444.64,211.78v-74.55c1.01,0,2.03-.08,3.04.01,3.09.27,6.19.56,9.27.93,21.13,2.56,39.14,11.73,54.64,26.04,10.58,9.77,18.65,21.37,24.35,34.59,2.56,5.93,4.63,12.03,5.86,18.37.69,3.54,1.16,7.13,1.61,10.71.29,2.3.36,4.63.5,6.95.11,1.78.31,3.57.21,5.34-.22,3.92-.42,7.86-.97,11.75-.68,4.76-1.43,9.55-2.64,14.19-3.43,13.11-9.44,25.01-17.78,35.69-10.75,13.78-24.16,24.15-40.27,30.97-4.97,2.1-10.05,3.86-15.33,5.04-.09.02-.21-.04-.52-.11,16.47-6.98,28.5-18.36,35.58-34.63,7.04-16.17,7.4-32.69,1.25-49.19-9.39-25.22-33.09-41.37-58.82-42.13Z"/><path class="cls-4" d="m451.94,346.18c32.37-2.77,59.37-16.1,80.05-41.22,20.61-25.03,28.35-54.01,24.85-86.09,3.23.84,14.37,22.78,16.17,31,8.26,37.64-2.88,68.02-33.66,91.21-28.2,18.27-57.37,19.64-87.41,5.1Z"/></g></svg>