<?xml version="1.0" encoding="UTF-8"?><svg id="Layer_1" xmlns="http://www.w3.org/2000/svg" viewBox="0 0 575.97 134.68"><defs><style>.cls-1{fill:#fff;}</style></defs><path class="cls-1" d="m25.21,3.99v-1.98c2.07-.27,4.11-.55,6.15-.8.97-.12,1.56.14,1.51,1.35-.09,2.07,0,4.15-.04,6.23-.02.93-.17,1.86-.25,2.65,1.59-.56,3.11-1.23,4.69-1.63,4.53-1.15,7.32.92,7.52,5.64.14,3.27.12,6.55.05,9.82-.02,1.22.16,1.99,1.58,1.91.26-.01.53.12.85.2v1.86h-9.89v-1.77c.07-.05.13-.12.2-.14,2.32-.56,2.33-.56,2.31-3.03-.01-2.51,0-5.03-.09-7.54-.02-.74-.21-1.5-.47-2.2-.4-1.06-1.19-1.72-2.39-1.61-1.1.1-2.21.2-3.27.49-.36.1-.8.79-.8,1.21-.06,3.79-.02,7.59-.05,11.38,0,.7.19,1.04.91,1.07.31.01.62.15.97.25v1.88h-9.25v-1.87c.76-.16,1.53-.32,2.38-.5,0-.56,0-1.08,0-1.59,0-6.31-.03-12.62.03-18.93.01-1.14-.25-1.79-1.44-1.94-.42-.05-.81-.27-1.22-.41Z"/><path class="cls-1" d="m152.56,10.04c0,.53-.03,1.01,0,1.48.07.74-.09,1.14-.97,1.26-.44.06-.99.61-1.17,1.07-2.21,5.68-4.31,11.4-6.55,17.07-.68,1.73-1.58,3.4-2.59,4.96-1.51,2.33-3.88,2.89-6.49,2.66-.25-.02-.65-.46-.67-.73-.08-1.07-.03-2.14-.03-3.36,1.64.46,3.15.42,4.42-.67,1.26-1.07,1.9-2.52,2.24-3.83-.42-.59-.79-.96-.98-1.41-2.04-4.8-4.06-9.61-6.05-14.44-.31-.75-.64-1.3-1.54-1.44-.28-.04-.62-.51-.7-.84-.12-.53-.03-1.1-.03-1.78h9.28v2.5c-.61.16-1.24.32-1.99.52,1.42,4.03,2.82,8.02,4.3,12.21,1.25-4.16,2.46-8.17,3.7-12.28-.9-.17-1.71-.33-2.54-.49v-2.46h8.36Z"/><path class="cls-1" d="m23.25,2.44c0,1.65,0,3.13,0,4.6,0,.55-.05,1.11-.08,1.71-.65.13-1.26.25-1.97.39-.39-1.18-.77-2.34-1.18-3.6-1.64-.15-3.32-.3-5.15-.46-.02.36-.06.73-.06,1.1,0,6.43.01,12.85-.02,19.28,0,.92.16,1.39,1.2,1.42.95.03,1.89.28,2.88.45v1.98H5.76v-1.99c1.05-.16,2.15-.29,3.22-.53.31-.07.76-.49.76-.75.04-6.94.03-13.88.03-20.98-1.81.15-3.55.3-5.38.45-.23.64-.53,1.25-.66,1.9-.24,1.21-.93,1.65-2.11,1.47-.26-.04-.54,0-.94,0,.09-1.98.15-3.88.3-5.76.02-.24.52-.64.79-.64,7.11-.04,14.21-.03,21.46-.03Z"/><path class="cls-1" d="m101.66,22.6v5.56c-2.98.99-5.96,1.88-9.1,1.77-5.62-.21-10.55-2.73-12.34-9.22-2.25-8.12,2.56-16.85,11.75-18.24,3.2-.48,6.52-.23,9.79,1-.1,1.77-.18,3.59-.34,5.41-.02.25-.45.62-.74.67-.62.1-1.27.03-2.01.03-.27-.77-.62-1.53-.81-2.32-.28-1.23-1.09-1.76-2.22-2.04-4.26-1.08-7.98.9-9.54,5.13-1.63,4.44-1.17,8.75.97,12.88,1.77,3.42,5.04,4.75,8.76,3.88,1.6-.38,2.41-1.35,2.93-2.81.67-1.91.73-1.89,2.9-1.68Z"/><path class="cls-1" d="m176.81,38.21c.43-1.38.71-2.28,1.03-3.32.65.19,1.24.36,1.83.54,1.21.38,2.04.11,2.41-1.1.45-1.47.7-3.02.91-4.55.44-3.19.81-6.4,1.18-9.6.3-2.59.58-5.18.87-7.85-.85-.09-1.53-.17-2.23-.25.07-1.15.5-1.85,1.53-2.08,1.04-.24,1.4-.95,1.55-1.96.38-2.58,1.51-4.78,3.69-6.32,2.11-1.5,4.42-1.56,6.95-.86-.36,1.04-.68,1.97-1.03,2.98-.55-.22-1.03-.47-1.55-.62-1.47-.4-2.59.12-3.01,1.57-.41,1.43-.62,2.92-.95,4.52h4.1c-.1.84-.1,1.59-.31,2.28-.09.28-.6.56-.95.6-.83.09-1.68-.02-2.51.06-.3.03-.78.35-.81.59-.29,2.23-.48,4.47-.76,6.7-.28,2.25-.64,4.49-.92,6.75-.21,1.65-.2,3.34-.56,4.95-.75,3.43-2.43,6.2-6.19,6.93-1.3.25-2.69.04-4.3.04Z"/><path class="cls-1" d="m67.4,20.09h-12.31c-.5,3.16,1.79,6.7,5.44,6.69,1.9,0,3.8-.52,5.78-.82.96,1.69.95,1.88-.99,2.67-3.61,1.46-7.32,2.07-10.91.08-1.24-.68-2.46-1.75-3.18-2.95-3.21-5.35-1.24-12.63,3.88-15.23,2.4-1.22,4.97-1.27,7.45-.78,3.27.65,4.57,3.07,4.82,6.02.12,1.38.02,2.77.02,4.31Zm-4.82-2.62c0-.98.05-1.81-.01-2.64-.11-1.57-.93-2.85-2.11-3.01-1.91-.26-2.81-.29-4.04,1.3-.97,1.25-1.32,2.73-1.42,4.34h7.58Z"/><path class="cls-1" d="m179.45,17.68c.18,3.77-1.07,7-3.85,9.54-2.63,2.4-5.74,3.15-9.19,2.07-2.95-.93-4.15-3.36-4.45-6.1-.48-4.33.63-8.27,3.86-11.44,2.43-2.38,5.41-2.82,8.54-2.29,3.03.51,5.13,3.45,5.08,6.67,0,.52,0,1.04,0,1.55Zm-12.98,3.49c.37,1.67.56,3.13,1.02,4.5.66,1.98,2.58,2.54,4.16,1.17.8-.7,1.57-1.7,1.83-2.7.56-2.16.93-4.4,1.08-6.63.09-1.38-.19-2.85-.62-4.18-.63-1.97-2.68-2.48-4.19-1.06-.76.71-1.46,1.66-1.77,2.63-.66,2.09-1.05,4.27-1.51,6.27Z"/><path class="cls-1" d="m124.44,5.42v4.59h5.72v2.66h-5.42c-.05.27-.11.46-.11.64.03,3.59.02,7.18.1,10.78.05,2.22.71,2.76,2.89,2.5.75-.09,1.47-.31,2.21-.47,1.07,1.69.98,2-.86,2.78-1.87.8-3.84,1.02-5.84.8-1.77-.19-2.96-1.4-3.18-3.36-.18-1.54-.2-3.1-.22-4.66-.03-2.95,0-5.89,0-8.94h-2.42c-.44-1.57-.42-1.65,1.03-2.01,1.23-.31,2.04-1.04,2.5-2.19.19-.48.4-.95.58-1.44q.72-1.95,3.01-1.68Z"/><path class="cls-1" d="m105.16,29.24v-1.79c.85-.25,2.08-.25,2.4-.78.43-.71.17-1.85.17-2.8,0-2.67-.03-5.34.02-8.01.02-.85-.23-1.44-.92-1.9-.36-.24-.71-.53-1.01-.84-.68-.72-.44-1.74.48-2.03,1.44-.45,2.89-.89,4.34-1.32,1.52-.46,1.99-.12,1.99,1.42,0,4.74.04,9.49-.03,14.23-.02,1.17.22,1.83,1.52,1.76.3-.02.61.13.96.21v1.88h-9.93Z"/><path class="cls-1" d="m112.97,2.82c0,1.97-1.36,3.26-3.43,3.25-1.68-.02-3.05-1.23-3.05-2.71,0-1.76,1.71-3.34,3.66-3.35,1.96-.02,2.82.84,2.82,2.82Z"/><g id="SAN_DIEGO"><path class="cls-1" d="m433.6,98.64h-18.3v-12.62h34.93c.2,7.47-1.23,14.57-5.16,21.05-4.84,7.99-11.71,13.4-20.7,16.04-17.86,5.24-36.65-4.89-42.71-22.16-6.35-18.1,2.79-37.75,19.86-44.6,16.63-6.66,35.21.13,43.37,14.06-3.73,2.71-7.47,5.43-11.15,8.09-1.41-1.72-2.66-3.52-4.17-5.07-3.2-3.26-7.15-5.3-11.68-5.83-11.53-1.34-19.44,5.26-22.39,14.34-2.66,8.19-1.13,15.73,4.61,22.18,3.76,4.23,8.59,6.49,14.34,6.55,6.2.07,11.59-1.88,15.84-6.51,1.44-1.56,2.55-3.35,3.31-5.53Z"/><path class="cls-1" d="m227.83,122.91V54.66c.32-.03.55-.07.79-.07,9.39,0,18.79-.28,28.17.1,13.96.57,24.66,6.82,31.19,19.44,1.84,3.55,2.69,7.4,3.05,11.42.74,8.09-.98,15.51-5.61,22.17-5.8,8.34-13.91,13.09-23.89,14.67-2.5.39-5.06.47-7.6.49-8.35.06-16.71.02-25.06.02h-1.05Zm14.26-12.94c4.73,0,9.33.01,13.93,0,4.62-.01,8.83-1.39,12.42-4.25,7.44-5.92,9.48-13.79,7.42-22.75-2.11-9.18-10.08-15.14-19.38-15.42-4.51-.14-9.03-.06-13.55-.08-.27,0-.53.04-.84.07v42.43Z"/><path class="cls-1" d="m527.76,88.56c.71,19.69-16.28,36.05-35.85,35.51-19.87-.54-33.24-15.92-34.62-32.18-.92-10.89,2.55-20.46,10.33-28.24,5.8-5.81,12.86-9.2,21.08-10,11.22-1.09,20.92,2.27,29,10.15,5.19,5.06,10.56,14.23,10.06,24.76Zm-14.63.26c.1-.02.19-.03.29-.05-.36-2.26-.42-4.62-1.15-6.75-2.84-8.28-8.33-13.56-17.33-14.74-4.02-.53-7.78.07-11.37,1.85-8.97,4.44-13.87,15.38-10.86,25.81,2.58,8.93,9.18,14.26,18.14,15.47,2.97.4,5.92-.27,8.76-1.27,8.22-2.91,14.14-11.8,13.52-20.31Z"/><path class="cls-1" d="m126.99,53.27c16.25,13.63,32.31,27.1,48.53,40.7v-39.29h14.27v69.4c-16.22-13.48-32.27-26.82-48.51-40.31v39.07h-14.29V53.27Z"/><path class="cls-1" d="m118.38,122.91c-5.15,0-10.03.02-14.9-.03-.35,0-.85-.38-1.02-.72-1.29-2.52-2.54-5.05-3.76-7.61-.28-.59-.61-.8-1.27-.8-10.43.02-20.86.02-31.29,0-.72,0-1.05.25-1.34.88-1.15,2.5-2.34,4.98-3.58,7.43-.19.37-.7.81-1.07.81-4.59.06-9.19.04-14.07.04,12.06-23.23,24.03-46.29,36.11-69.57,12.09,23.23,24.1,46.31,36.21,69.57Zm-46.95-22.1h20.57c-3.47-7.05-6.88-13.98-10.38-21.1-3.44,7.12-6.78,14.04-10.2,21.1Z"/><path class="cls-1" d="m372.91,122.85h-42.31V54.67h35.49v12.73h-21.26v12.7h24.73v12.79h-24.72v17.05h28.07v12.91Z"/><path class="cls-1" d="m28.21,70.4c-2.2-2.04-4.62-3.35-7.56-3.34-3.86,0-6.47,2.89-6.01,6.71.21,1.75,1.27,3.07,2.81,3.94,2.11,1.19,4.45,1.76,6.83,1.81,7.74.15,17.96,4.89,20.47,15.9,3.31,14.55-5.8,26.27-18.85,28.34-8.92,1.41-16.76-1.42-23.47-7.41-.77-.69-1.54-1.38-2.43-2.17,4.1-3.01,7.98-5.86,11.78-8.64.7.64,1.32,1.19,1.93,1.76,3.8,3.56,10.28,4.4,14.06,1.04,1.67-1.48,2.74-3.25,2.7-5.62-.12-6.09-3.76-9.54-9.94-10.05-7.25-.6-15.69-4.33-18.7-13.22-.83-2.46-1.39-5-1.08-7.56.63-5.29,2.85-9.85,6.99-13.32,4.05-3.4,8.67-5.32,14.06-5.13,7.16.25,12.95,3.24,17.64,8.8-3.74,2.73-7.44,5.42-11.21,8.18Z"/><path class="cls-1" d="m301.86,54.65h14.13v68.21h-14.13V54.65Z"/></g><g id="Sails"><path class="cls-1" d="m510.13,123.58c18.8-8.17,25.29-25.12,24.58-38.82-1.01-19.5-16.63-36.24-38.01-37.28V2.57c2.12.1,4.23.03,6.28.34,3.15.47,6.34.96,9.39,1.86,16.63,4.89,28.93,15.18,37.24,30.3,3.45,6.28,5.71,13.01,6.59,20.11.48,3.85.7,7.78.54,11.65-.56,13.74-5.25,26-14.04,36.6-8.29,10.01-18.77,16.69-31.37,20.03-.23.06-.46.14-.69.17-.15.02-.31-.02-.5-.04Z"/><path class="cls-1" d="m501,128.67c19.76-1.72,36.05-9.76,48.52-24.9,12.43-15.09,16.98-32.58,15.09-51.93,6.58,8.05,10.34,17.25,11.18,27.64.84,10.38-1.17,20.18-6.35,29.23-13.84,24.15-43.9,33-68.43,19.97Z"/></g></svg>