<?xml version="1.0" encoding="utf-8"?>
<!-- Generator: Adobe Illustrator 27.8.1, SVG Export Plug-In . SVG Version: 6.00 Build 0)  -->
<svg version="1.1" id="Layer_1" xmlns="http://www.w3.org/2000/svg" xmlns:xlink="http://www.w3.org/1999/xlink" x="0px" y="0px"
	 viewBox="0 0 534.73 426.23" style="enable-background:new 0 0 534.73 426.23;" xml:space="preserve">
<g>
	<path d="M461.06,126.94C432.7,52.63,361.59,0,281.49,0v145.21c51.59,2.82,94.87,36,112.24,81.96c5.35,14.03,8.24,29.17,8.24,45.06
		c0,62.43-44.69,114.4-103.93,125.38c99.92-10.39,176.16-96.65,176.16-199.47C474.2,173.04,469.52,148.99,461.06,126.94z"/>
</g>
<g>
	<g>
		<g>
			<path d="M77.06,248.1c-23.31-1.48-30.73-10.62-30.73-20.64c0-12.1,8.31-19.52,20.41-19.52c7.65,0,17.45,4.75,23.31,10.91
				l36.08-26.28c-16.85-20.04-37.49-28.36-59.39-28.36C36.3,164.21,2,190.49,2,227.76c0,34.52,24.87,58.5,62.95,62.88
				c21.31,2.38,33.11,13.36,33.11,31.03c0,14.18-11.8,26.35-26.87,26.35c-12.99,0-23.38-3.27-33.41-15.96L0,359.82
				c20.93,23.01,46.03,32.22,71.19,32.22c38.68,0,74.46-30.73,74.46-73.57C145.65,275.86,114.62,250.47,77.06,248.1z"/>
		</g>
		<path d="M267.1,168.07h-89.23v220.11h89.53c63.25,0,114.92-46.99,114.92-110.24C382.31,215.36,330.64,168.07,267.1,168.07z
			 M267.39,346.83h-43.72V209.42h43.43c38.38,0,68.22,28.65,68.22,68.52C335.32,317.58,305.48,346.83,267.39,346.83z"/>
	</g>
</g>
<path d="M497.53,158.12c1.34,9.5,2,19.29,2,29.16c0,117.03-91.2,212.84-206.6,219.44c73.39,39.55,166.16,17.51,213.8-53.13
	C548.14,292,542.42,212.81,497.53,158.12z"/>
</svg>
