<?xml version="1.0" encoding="utf-8"?>
<!-- Generator: Adobe Illustrator 27.8.1, SVG Export Plug-In . SVG Version: 6.00 Build 0)  -->
<svg version="1.1" id="Layer_1" xmlns="http://www.w3.org/2000/svg" xmlns:xlink="http://www.w3.org/1999/xlink" x="0px" y="0px"
	 viewBox="0 0 600.81 371.39" style="enable-background:new 0 0 600.81 371.39;" xml:space="preserve">
<style type="text/css">
	.st0{fill:#FFFFFF;}
</style>
<path class="st0" d="M580.87,227.76c0.72,5.09,1.07,10.34,1.07,15.62c0,62.69-48.86,114.02-110.68,117.56
	c39.32,21.19,89.01,9.38,114.54-28.47C607.99,299.48,604.93,257.06,580.87,227.76z"/>
<path class="st0" d="M560.92,211.82c-15.19-40.15-53.87-68.66-97-68.66v77.68c28.23,0.99,52,18.96,61.42,43.97
	c2.86,7.47,4.41,15.62,4.41,24.13c0,29.34-18.45,54.35-44.41,64.01c47.43-10.5,82.41-52.95,82.41-103.68
	C567.75,236.07,565.33,223.43,560.92,211.82z"/>
<path class="st0" d="M560.92,211.82c-15.19-40.15-53.87-68.66-97-68.66v77.68c28.23,0.99,52,18.96,61.42,43.97
	c2.86,7.47,4.41,15.62,4.41,24.13c0,29.34-18.45,54.35-44.41,64.01c47.43-10.5,82.41-52.95,82.41-103.68
	C567.75,236.07,565.33,223.43,560.92,211.82z"/>
<g>
	<path class="st0" d="M1.11,121.38c0-19.94,18.35-34.02,34.65-34.02c11.71,0,22.78,4.43,31.8,15.19l-19.3,14.08
		c-3.16-3.32-8.39-5.85-12.5-5.85c-6.49,0-10.92,3.96-10.92,10.44c0,5.38,3.96,10.29,16.46,11.08C61.39,133.56,78,147.16,78,169.95
		c0,22.94-19.15,39.4-39.87,39.4c-13.45,0-26.9-4.91-38.13-17.25l20.25-14.87c5.38,6.8,10.92,8.54,17.88,8.54
		c8.07,0,14.4-6.49,14.4-14.08c0-9.49-6.33-15.35-17.72-16.61C14.4,152.7,1.11,139.89,1.11,121.38z"/>
	<path class="st0" d="M169.27,191.47h-57.12l-7.6,15.82H79.24l62.18-119.93l62.34,119.93h-26.74L169.27,191.47z M122.75,169.32
		h35.76l-18.04-36.71L122.75,169.32z"/>
	<path class="st0" d="M302.63,89.41h24.52v119.93l-83.86-69.78v67.72h-24.52V87.2l83.86,70.41V89.41z"/>
</g>
<path class="st0" d="M47.78,233.14c34.02,0,61.71,25.32,61.71,58.86c0,33.86-27.69,59.02-61.55,59.02H0V233.14H47.78z M47.94,328.87
	c20.41,0,36.39-15.66,36.39-36.87c0-21.36-15.98-36.71-36.55-36.71H24.52v73.57H47.94z"/>
<path class="st0" d="M152.2,351.02h-24.52V233.14h24.52V351.02z"/>
<path class="st0" d="M177.32,351.02V233.14h61.38v22.15h-36.86v21.99h42.8v21.99h-42.8v29.59h48.57v22.15H177.32z"/>
<path class="st0" d="M383.83,290.86c0,34.81-27.21,62.81-61.07,62.81c-33.7,0-60.6-27.21-60.6-60.92c0-33.7,26.9-61.07,60.44-61.07
	c21.99,0,41.45,11.39,52.05,28.64l-19.62,14.24c-6.17-11.55-18.35-19.46-32.28-19.46c-19.78,0-35.44,16.77-35.44,37.66
	c0,20.73,15.66,37.34,35.44,37.34c14.24,0,27.37-7.28,32.59-21.04h-31.96v-21.83h60.44V290.86z"/>
<g>
	<g>
		<path class="st0" d="M8.57,47.23l7.08-1.08V8.57L6.3,9.29l-2.06,5.85L0,15.32L0.72,4.3H38.8l-0.06,10.87l-3.46,0.39l-1.97-6.27
			l-9.14-0.72v37.55l7.17,1.1v3.47H8.57V47.23z"/>
		<path class="st0" d="M42.51,47.29l4.36-0.75V8.36l-4.51-1.43V3.43l11.38-1.37l1.61,0.6l-0.03,14.07L54.9,20.7
			c0.9-0.78,1.84-1.43,2.84-1.97s2-0.97,3-1.31c1.01-0.34,1.98-0.58,2.93-0.73c0.95-0.15,1.81-0.22,2.58-0.22
			c2.09,0,3.79,0.34,5.09,1.02c1.3,0.68,2.33,1.68,3.06,3c0.74,1.32,1.22,2.97,1.46,4.94c0.24,1.97,0.35,4.24,0.33,6.81v14.31
			l4.24,0.75v3.41l-17.36-0.03v-3.38l4.63-0.78V34.14c0-1.87-0.05-3.56-0.15-5.05c-0.1-1.49-0.35-2.76-0.75-3.79
			c-0.4-1.03-1.01-1.83-1.84-2.39c-0.83-0.56-1.97-0.84-3.42-0.84c-1.08,0-2.14,0.13-3.2,0.4c-1.06,0.27-2.06,0.75-3.02,1.45v22.61
			l3.55,0.75v3.41h-16.4V47.29z"/>
		<path class="st0" d="M84.71,34.5c0-2.55,0.41-4.93,1.23-7.14c0.82-2.21,1.99-4.13,3.51-5.75c1.52-1.62,3.37-2.91,5.53-3.85
			c2.16-0.95,4.59-1.43,7.27-1.45c2.13-0.02,3.99,0.27,5.59,0.85c1.59,0.59,2.92,1.42,3.99,2.51c1.06,1.09,1.88,2.4,2.43,3.94
			c0.56,1.54,0.88,3.26,0.96,5.15c0.04,1.26,0.01,2.36-0.09,3.3c-0.1,0.95-0.2,1.81-0.3,2.58H93.41c0,0.06,0,0.11,0.02,0.16
			c0.01,0.05,0.01,0.1,0.01,0.13c0.12,2.05,0.46,3.79,1.03,5.23c0.57,1.43,1.31,2.6,2.24,3.51c0.93,0.91,2,1.57,3.21,1.99
			c1.21,0.42,2.51,0.63,3.88,0.63c0.74,0,1.52-0.04,2.35-0.12c0.83-0.08,1.64-0.2,2.45-0.36c0.81-0.16,1.59-0.36,2.34-0.6
			c0.76-0.24,1.45-0.52,2.09-0.84l1.37,3.23c-0.68,0.58-1.52,1.11-2.54,1.6c-1.02,0.49-2.12,0.9-3.32,1.24
			c-1.2,0.34-2.45,0.6-3.78,0.78c-1.32,0.18-2.64,0.26-3.96,0.24c-2.57-0.02-4.85-0.43-6.85-1.23c-2-0.8-3.69-1.92-5.06-3.37
			c-1.37-1.45-2.41-3.22-3.12-5.3C85.07,39.48,84.71,37.13,84.71,34.5z M106.73,30.41c0.06-0.86,0.1-1.75,0.12-2.67
			c0.02-0.93-0.04-1.82-0.16-2.67c-0.13-0.86-0.37-1.64-0.72-2.36s-0.86-1.3-1.54-1.76c-0.42-0.28-0.91-0.5-1.46-0.66
			c-0.56-0.16-1.19-0.24-1.91-0.24c-1.18,0-2.21,0.27-3.09,0.81c-0.89,0.54-1.64,1.27-2.25,2.21c-0.62,0.94-1.11,2.04-1.48,3.3
			c-0.37,1.26-0.61,2.61-0.73,4.05H106.73z"/>
		<path class="st0" d="M136.48,29.06c0-2.57,0.32-4.98,0.96-7.23c0.64-2.25,1.53-4.31,2.67-6.17c1.15-1.86,2.5-3.53,4.08-4.99
			c1.57-1.46,3.3-2.7,5.18-3.7s3.87-1.77,5.97-2.3c2.1-0.53,4.26-0.79,6.47-0.79c1.49,0,2.86,0.08,4.11,0.24
			c1.24,0.16,2.38,0.34,3.41,0.55c1.02,0.21,1.96,0.43,2.79,0.66c0.84,0.23,1.59,0.41,2.27,0.55l-0.57,10.34h-4.9l-1.91-5.62
			c-0.4-0.36-0.82-0.67-1.25-0.93c-0.44-0.26-0.95-0.47-1.54-0.64c-0.59-0.17-1.27-0.3-2.05-0.39c-0.78-0.09-1.7-0.14-2.78-0.14
			c-1.85,0-3.6,0.4-5.26,1.21c-1.65,0.81-3.1,1.98-4.33,3.52c-1.23,1.54-2.21,3.45-2.93,5.71c-0.72,2.26-1.08,4.84-1.08,7.75
			c0,1.79,0.13,3.54,0.4,5.26c0.27,1.71,0.67,3.33,1.21,4.85c0.54,1.52,1.2,2.93,2,4.21c0.8,1.28,1.72,2.39,2.78,3.31
			c1.06,0.93,2.23,1.65,3.53,2.17c1.29,0.52,2.72,0.78,4.27,0.78c1.23,0,2.31-0.07,3.21-0.22s1.69-0.35,2.35-0.61
			c0.66-0.26,1.2-0.57,1.63-0.93c0.43-0.36,0.78-0.75,1.06-1.16l2.12-5.38h4.06v9.77c-0.74,0.04-1.54,0.21-2.4,0.49
			c-0.87,0.29-1.9,0.6-3.09,0.94c-1.2,0.34-2.6,0.65-4.21,0.93c-1.61,0.28-3.53,0.42-5.74,0.42c-3.5,0-6.65-0.57-9.42-1.7
			c-2.78-1.14-5.14-2.7-7.08-4.7c-1.94-2-3.43-4.38-4.45-7.12C136.99,35.25,136.48,32.27,136.48,29.06z"/>
		<path class="st0" d="M180.21,47.29l4.48-0.78V25.42l-3.94-3.37v-2.39l10.31-3.2l2,0.69v29.42l4.54,0.72v3.41h-17.39V47.29z
			 M187.83,10.45c-0.66,0-1.29-0.11-1.91-0.33c-0.62-0.22-1.17-0.53-1.64-0.94c-0.48-0.41-0.86-0.91-1.15-1.49
			c-0.29-0.59-0.43-1.25-0.43-1.99c0-0.82,0.18-1.57,0.54-2.27c0.36-0.7,0.83-1.3,1.42-1.81c0.59-0.51,1.24-0.91,1.97-1.19
			c0.73-0.29,1.45-0.43,2.17-0.43c0.9,0,1.66,0.13,2.3,0.39c0.64,0.26,1.16,0.6,1.58,1.03c0.42,0.43,0.73,0.94,0.93,1.52
			c0.2,0.59,0.3,1.21,0.3,1.87c0,0.86-0.18,1.63-0.52,2.33c-0.35,0.7-0.81,1.29-1.37,1.78s-1.21,0.87-1.94,1.14
			C189.33,10.32,188.59,10.45,187.83,10.45z"/>
		<path class="st0" d="M205.42,21.92h-4.54v-2.9c0.68-0.14,1.29-0.27,1.84-0.4c0.55-0.13,1.03-0.28,1.46-0.45
			c0.43-0.17,0.82-0.37,1.17-0.61c0.35-0.24,0.66-0.56,0.94-0.96c0.24-0.3,0.49-0.72,0.76-1.26c0.27-0.54,0.54-1.13,0.81-1.79
			c0.27-0.66,0.53-1.35,0.78-2.09s0.47-1.46,0.67-2.18h4.12v7.98h10.13v4.66h-9.86v12.7c0,2.51,0.04,4.52,0.13,6.04
			s0.27,2.68,0.54,3.49c0.27,0.82,0.63,1.35,1.09,1.61c0.46,0.26,1.07,0.39,1.82,0.39c0.44,0,0.93-0.03,1.48-0.1
			c0.55-0.07,1.08-0.16,1.6-0.27c0.52-0.11,1-0.24,1.45-0.39c0.45-0.15,0.8-0.3,1.06-0.46l1.28,3.08c-0.46,0.5-1.09,0.96-1.88,1.37
			c-0.8,0.42-1.69,0.78-2.67,1.08s-2.02,0.53-3.11,0.7c-1.09,0.17-2.16,0.25-3.21,0.25c-1.45,0-2.68-0.19-3.67-0.58
			c-1-0.39-1.8-0.99-2.42-1.79c-0.62-0.81-1.07-1.84-1.34-3.09c-0.28-1.26-0.42-2.75-0.42-4.48V21.92z"/>
		<path class="st0" d="M231.73,59.8c0.61,0.1,1.27,0.14,1.99,0.12c0.58,0,1.23-0.1,1.97-0.31c0.74-0.21,1.48-0.64,2.24-1.28
			c0.76-0.65,1.49-1.58,2.21-2.79c0.72-1.22,1.33-2.83,1.85-4.84h-1.46l-11.86-28.35l-2.81-0.69v-4.39h15.89v4.39l-3.79,0.75
			l6.36,17.68l1.11,4.54l1.28-4.54l5.38-17.8l-4.33-0.63v-4.39h14.19v4.39l-3.14,0.57c-1.41,3.8-2.66,7.13-3.73,9.98
			c-1.08,2.85-2.01,5.31-2.79,7.39c-0.79,2.08-1.45,3.83-1.99,5.26c-0.54,1.42-0.99,2.61-1.36,3.55c-0.37,0.95-0.66,1.7-0.88,2.27
			c-0.22,0.57-0.41,1.05-0.57,1.45c-0.84,2.19-1.68,4.14-2.52,5.85c-0.85,1.71-1.76,3.17-2.73,4.38c-0.98,1.2-2.05,2.15-3.23,2.84
			c-1.18,0.69-2.5,1.09-3.97,1.21c-0.84,0.1-1.73,0.13-2.69,0.09c-0.44-0.04-0.87-0.09-1.3-0.15c-0.43-0.06-0.73-0.15-0.91-0.27
			l0.03-6.57C230.6,59.6,231.12,59.7,231.73,59.8z"/>
		<path class="st0" d="M278.19,37.58c-0.06-2.83,0.32-5.54,1.15-8.14c0.83-2.6,2.02-4.9,3.58-6.9c1.56-2,3.45-3.6,5.66-4.79
			c2.21-1.2,4.68-1.79,7.41-1.79c2.01,0,3.79,0.31,5.33,0.93c1.54,0.62,2.84,1.51,3.9,2.69c1.06,1.18,1.86,2.61,2.42,4.32
			c0.56,1.7,0.87,3.64,0.93,5.81c0.04,1.87-0.11,3.71-0.46,5.51c-0.35,1.8-0.88,3.51-1.6,5.11c-0.72,1.6-1.6,3.08-2.66,4.42
			c-1.06,1.34-2.25,2.5-3.58,3.47s-2.8,1.72-4.41,2.27c-1.6,0.55-3.31,0.82-5.12,0.82c-2.01,0-3.78-0.31-5.32-0.93
			c-1.53-0.62-2.83-1.51-3.88-2.67c-1.06-1.17-1.86-2.6-2.42-4.3S278.25,39.75,278.19,37.58z M291.93,47.55
			c1.02,0,1.93-0.26,2.73-0.79c0.81-0.53,1.52-1.24,2.14-2.14c0.62-0.9,1.14-1.94,1.57-3.14c0.43-1.2,0.78-2.45,1.04-3.78
			c0.27-1.32,0.45-2.68,0.55-4.06c0.1-1.38,0.14-2.72,0.12-4.02c-0.06-3.33-0.51-5.79-1.34-7.39c-0.84-1.6-2.1-2.4-3.79-2.4
			c-1.01,0-1.93,0.26-2.75,0.79c-0.82,0.53-1.54,1.24-2.17,2.12c-0.63,0.89-1.17,1.92-1.61,3.11c-0.45,1.18-0.81,2.44-1.09,3.76
			c-0.28,1.32-0.48,2.67-0.6,4.03c-0.12,1.36-0.16,2.68-0.12,3.96c0.08,3.35,0.53,5.84,1.36,7.48
			C288.8,46.73,290.12,47.55,291.93,47.55z"/>
		<path class="st0" d="M318.31,20.88h-3.94l0.54-2.66l4.24-1.88l0.45-2.6c0.32-1.85,0.87-3.56,1.66-5.14
			c0.79-1.57,1.76-2.94,2.91-4.09c1.16-1.16,2.46-2.06,3.93-2.72c1.46-0.66,3.04-0.99,4.73-0.99c0.82,0,1.66,0.04,2.52,0.13
			c0.87,0.09,1.7,0.3,2.49,0.64l-1.82,5.17c-0.18-0.14-0.4-0.29-0.66-0.46c-0.26-0.17-0.56-0.33-0.9-0.48
			c-0.34-0.15-0.72-0.27-1.15-0.36c-0.43-0.09-0.9-0.13-1.42-0.13c-0.78,0-1.42,0.15-1.94,0.46c-0.52,0.31-0.95,0.77-1.3,1.39
			c-0.35,0.62-0.63,1.38-0.85,2.28c-0.22,0.91-0.42,1.97-0.6,3.18l-0.48,3.56h6.96l-0.57,4.69h-7.02l-3.73,30.56
			c-0.26,2.03-0.73,3.93-1.4,5.69c-0.68,1.76-1.56,3.3-2.66,4.61s-2.39,2.36-3.88,3.12s-3.19,1.15-5.08,1.15
			c-0.54,0-1.07-0.01-1.6-0.04c-0.53-0.03-1.03-0.07-1.49-0.12c-0.47-0.05-0.89-0.11-1.27-0.18c-0.38-0.07-0.69-0.13-0.93-0.19
			l1.64-5.26c0.1,0.04,0.34,0.13,0.72,0.28c0.38,0.15,0.81,0.3,1.3,0.45c0.49,0.15,0.99,0.28,1.49,0.39
			c0.51,0.11,0.94,0.17,1.3,0.17c0.98,0,1.76-0.57,2.36-1.7c0.6-1.14,1.03-2.73,1.31-4.78L318.31,20.88z"/>
	</g>
</g>
<path class="st0" d="M395.92,292c0-33.7,27.21-60.92,60.91-60.92c33.86,0,61.07,27.21,61.07,60.92c0,33.7-27.22,61.07-60.92,61.07
	C423.13,353.07,395.92,325.7,395.92,292z M421.08,292c0,21.04,15.66,37.5,35.92,37.5c19.94,0,35.76-16.45,35.76-37.5
	c0-20.73-15.98-37.5-35.92-37.5C436.74,254.5,421.08,271.27,421.08,292z"/>
</svg>
