<?xml version="1.0" encoding="utf-8"?>
<!-- Generator: Adobe Illustrator 27.8.1, SVG Export Plug-In . SVG Version: 6.00 Build 0)  -->
<svg version="1.1" id="Layer_1" xmlns="http://www.w3.org/2000/svg" xmlns:xlink="http://www.w3.org/1999/xlink" x="0px" y="0px"
	 viewBox="0 0 683.46 160.01" style="enable-background:new 0 0 683.46 160.01;" xml:space="preserve">
<style type="text/css">
	.st0{fill:#FFFFFF;}
</style>
<g>
	<g>
		<path class="st0" d="M669.74,61.21c0.49,3.5,0.74,7.11,0.74,10.75c0,43.13-33.61,78.44-76.14,80.87
			c27.05,14.58,61.23,6.45,78.79-19.58C688.4,110.54,686.29,81.36,669.74,61.21z"/>
		<g>
			<g>
				<path class="st0" d="M0.76,86.89c0-13.71,12.63-23.4,23.84-23.4c8.05,0,15.67,3.05,21.88,10.45L33.2,83.63
					c-2.18-2.29-5.77-4.03-8.6-4.03c-4.46,0-7.51,2.72-7.51,7.18c0,3.7,2.72,7.08,11.32,7.62c13.82,0.87,25.25,10.23,25.25,25.9
					c0,15.78-13.17,27.1-27.43,27.1c-9.25,0-18.5-3.37-26.23-11.86l13.93-10.23c3.7,4.68,7.51,5.88,12.3,5.88
					c5.55,0,9.9-4.46,9.9-9.69c0-6.53-4.35-10.56-12.19-11.43C9.9,108.44,0.76,99.63,0.76,86.89z"/>
				<path class="st0" d="M116.45,135.11H77.15L71.93,146H54.51l42.78-82.5l42.88,82.5h-18.4L116.45,135.11z M84.45,119.87h24.6
					L96.64,94.62L84.45,119.87z"/>
				<path class="st0" d="M208.19,64.91h16.87v82.5l-57.69-48V146H150.5V63.38l57.69,48.44V64.91z"/>
			</g>
			<path class="st0" d="M303.02,64.91c23.4,0,42.45,17.42,42.45,40.49c0,23.29-19.05,40.6-42.34,40.6h-32.98V64.91H303.02z
				 M303.13,130.76c14.04,0,25.03-10.78,25.03-25.36c0-14.69-10.99-25.25-25.14-25.25h-16v50.61H303.13z"/>
			<path class="st0" d="M374.85,146h-16.87V64.91h16.87V146z"/>
			<path class="st0" d="M392.13,146V64.91h42.23v15.24H409v15.13h29.44v15.13H409v20.35h33.42V146H392.13z"/>
			<path class="st0" d="M534.19,104.61c0,23.95-18.72,43.21-42.01,43.21c-23.18,0-41.69-18.72-41.69-41.91
				c0-23.18,18.5-42.01,41.58-42.01c15.13,0,28.52,7.84,35.81,19.7l-13.5,9.8c-4.24-7.95-12.63-13.39-22.2-13.39
				c-13.61,0-24.38,11.54-24.38,25.9c0,14.26,10.78,25.69,24.38,25.69c9.8,0,18.83-5.01,22.42-14.48h-21.99v-15.02h41.58V104.61z"/>
		</g>
		<g>
			<g>
				<path class="st0" d="M6.5,32.49l4.87-0.74V5.9L4.94,6.39l-1.42,4.03l-2.92,0.12L1.1,2.96h26.2l-0.04,7.48l-2.38,0.27l-1.36-4.32
					L17.23,5.9v25.83l4.93,0.76v2.38H6.5V32.49z"/>
				<path class="st0" d="M29.85,32.53l3-0.51V5.75l-3.1-0.99v-2.4l7.83-0.95l1.11,0.41l-0.02,9.68l-0.29,2.73
					c0.62-0.53,1.27-0.99,1.95-1.36s1.37-0.67,2.07-0.9s1.36-0.4,2.01-0.5c0.65-0.1,1.24-0.15,1.78-0.15c1.44,0,2.61,0.23,3.5,0.7
					c0.9,0.47,1.6,1.15,2.11,2.06s0.84,2.04,1.01,3.4c0.16,1.36,0.24,2.92,0.23,4.69v9.84l2.92,0.51v2.34l-11.94-0.02v-2.32
					L47.19,32v-8.51c0-1.29-0.03-2.45-0.1-3.47c-0.07-1.03-0.24-1.9-0.51-2.61c-0.27-0.71-0.7-1.26-1.26-1.64
					c-0.57-0.38-1.35-0.58-2.35-0.58c-0.74,0-1.47,0.09-2.2,0.28c-0.73,0.18-1.42,0.52-2.08,1v15.56l2.45,0.51v2.34H29.85V32.53z"/>
				<path class="st0" d="M58.88,23.73c0-1.75,0.28-3.39,0.84-4.91c0.56-1.52,1.37-2.84,2.41-3.96c1.05-1.12,2.32-2,3.8-2.65
					c1.49-0.65,3.15-0.98,5-1c1.47-0.01,2.75,0.18,3.84,0.59c1.1,0.4,2.01,0.98,2.74,1.73c0.73,0.75,1.29,1.65,1.67,2.71
					c0.38,1.06,0.6,2.24,0.66,3.54c0.03,0.86,0.01,1.62-0.06,2.27c-0.07,0.65-0.14,1.24-0.21,1.78H64.86c0,0.04,0,0.08,0.01,0.11
					c0.01,0.04,0.01,0.07,0.01,0.09c0.08,1.41,0.32,2.61,0.71,3.6c0.39,0.99,0.9,1.79,1.54,2.41c0.64,0.62,1.37,1.08,2.21,1.37
					c0.84,0.29,1.73,0.43,2.67,0.43c0.51,0,1.04-0.03,1.61-0.08c0.57-0.06,1.13-0.14,1.68-0.25c0.55-0.11,1.09-0.25,1.61-0.41
					c0.52-0.16,1-0.36,1.44-0.58l0.95,2.22c-0.47,0.4-1.05,0.76-1.75,1.1c-0.7,0.34-1.46,0.62-2.28,0.85
					c-0.82,0.23-1.69,0.41-2.6,0.53c-0.91,0.12-1.82,0.18-2.72,0.16c-1.77-0.01-3.34-0.29-4.72-0.84c-1.38-0.55-2.54-1.32-3.48-2.32
					c-0.95-1-1.66-2.22-2.15-3.65C59.13,27.16,58.88,25.54,58.88,23.73z M74.03,20.92c0.04-0.59,0.07-1.2,0.08-1.84
					c0.01-0.64-0.02-1.25-0.11-1.84c-0.09-0.59-0.25-1.13-0.49-1.62c-0.24-0.49-0.59-0.9-1.06-1.21c-0.29-0.19-0.62-0.34-1.01-0.45
					c-0.38-0.11-0.82-0.16-1.32-0.16c-0.81,0-1.52,0.18-2.13,0.55s-1.13,0.88-1.55,1.52c-0.42,0.64-0.76,1.4-1.02,2.27
					c-0.25,0.87-0.42,1.8-0.5,2.79H74.03z"/>
				<path class="st0" d="M94.49,19.99c0-1.77,0.22-3.42,0.66-4.97s1.05-2.96,1.84-4.24c0.79-1.28,1.72-2.43,2.8-3.43
					s2.27-1.86,3.57-2.55c1.29-0.69,2.66-1.22,4.11-1.58c1.45-0.36,2.93-0.55,4.45-0.55c1.03,0,1.97,0.06,2.83,0.16
					c0.86,0.11,1.64,0.24,2.34,0.38c0.71,0.14,1.35,0.29,1.92,0.45c0.58,0.16,1.1,0.28,1.56,0.38l-0.39,7.11h-3.37l-1.32-3.86
					c-0.27-0.25-0.56-0.46-0.86-0.64c-0.3-0.18-0.65-0.33-1.06-0.44c-0.4-0.12-0.87-0.2-1.41-0.27c-0.53-0.06-1.17-0.09-1.91-0.09
					c-1.27,0-2.48,0.28-3.62,0.83c-1.14,0.55-2.13,1.36-2.98,2.42c-0.85,1.06-1.52,2.37-2.01,3.92c-0.49,1.56-0.74,3.33-0.74,5.33
					c0,1.23,0.09,2.44,0.28,3.62c0.19,1.18,0.46,2.29,0.83,3.34c0.37,1.05,0.83,2.01,1.38,2.9c0.55,0.88,1.18,1.64,1.91,2.28
					c0.73,0.64,1.53,1.13,2.42,1.49c0.89,0.36,1.87,0.53,2.94,0.53c0.85,0,1.59-0.05,2.21-0.15c0.62-0.1,1.16-0.24,1.61-0.42
					c0.45-0.18,0.82-0.39,1.12-0.64c0.29-0.25,0.54-0.51,0.73-0.8l1.46-3.7h2.79v6.72c-0.51,0.03-1.06,0.14-1.65,0.34
					c-0.6,0.2-1.31,0.41-2.13,0.65c-0.82,0.23-1.79,0.44-2.9,0.64c-1.11,0.19-2.42,0.29-3.95,0.29c-2.41,0-4.57-0.39-6.48-1.17
					c-1.91-0.78-3.53-1.86-4.87-3.24s-2.36-3.01-3.06-4.9C94.85,24.25,94.49,22.2,94.49,19.99z"/>
				<path class="st0" d="M124.58,32.53l3.08-0.53V17.49l-2.71-2.32v-1.64l7.09-2.2l1.38,0.47v20.24l3.12,0.49v2.34h-11.96V32.53z
					 M129.82,7.19c-0.45,0-0.89-0.08-1.32-0.23c-0.42-0.15-0.8-0.37-1.13-0.65c-0.33-0.28-0.59-0.62-0.79-1.03
					c-0.2-0.4-0.3-0.86-0.3-1.37c0-0.56,0.12-1.08,0.37-1.56c0.25-0.48,0.57-0.89,0.98-1.24s0.86-0.62,1.36-0.82
					c0.5-0.2,1-0.3,1.49-0.3c0.62,0,1.14,0.09,1.58,0.27c0.44,0.18,0.8,0.41,1.09,0.71c0.29,0.29,0.5,0.64,0.64,1.05
					c0.14,0.4,0.21,0.83,0.21,1.28c0,0.59-0.12,1.12-0.36,1.6c-0.24,0.48-0.55,0.89-0.95,1.22c-0.39,0.34-0.84,0.6-1.34,0.78
					C130.85,7.1,130.34,7.19,129.82,7.19z"/>
				<path class="st0" d="M141.92,15.08h-3.12v-1.99c0.47-0.1,0.89-0.19,1.26-0.28c0.38-0.09,0.71-0.19,1.01-0.31
					c0.29-0.12,0.56-0.26,0.8-0.42c0.24-0.16,0.46-0.38,0.65-0.66c0.16-0.21,0.34-0.49,0.52-0.86c0.19-0.37,0.37-0.78,0.55-1.23
					c0.19-0.45,0.36-0.93,0.53-1.44s0.33-1.01,0.46-1.5h2.84v5.49h6.97v3.21h-6.78v8.73c0,1.73,0.03,3.11,0.09,4.15
					s0.19,1.84,0.37,2.4c0.19,0.56,0.44,0.93,0.75,1.11c0.32,0.18,0.73,0.27,1.25,0.27c0.3,0,0.64-0.02,1.02-0.07
					c0.38-0.05,0.74-0.11,1.1-0.18c0.36-0.08,0.69-0.16,1-0.27s0.55-0.21,0.73-0.32l0.88,2.12c-0.32,0.34-0.75,0.66-1.29,0.95
					c-0.55,0.29-1.16,0.53-1.84,0.74s-1.39,0.37-2.14,0.48c-0.75,0.12-1.48,0.18-2.21,0.18c-1,0-1.84-0.13-2.53-0.4
					c-0.68-0.27-1.24-0.68-1.66-1.23c-0.42-0.55-0.73-1.26-0.92-2.13c-0.19-0.86-0.29-1.89-0.29-3.08V15.08z"/>
				<path class="st0" d="M160.01,41.14c0.42,0.07,0.87,0.1,1.37,0.08c0.4,0,0.85-0.07,1.36-0.22c0.51-0.14,1.02-0.44,1.54-0.88
					c0.52-0.44,1.03-1.09,1.52-1.92c0.49-0.84,0.92-1.95,1.27-3.33h-1.01l-8.16-19.5l-1.93-0.47v-3.02h10.93v3.02l-2.61,0.51
					l4.38,12.17l0.76,3.12l0.88-3.12l3.7-12.25l-2.98-0.43v-3.02h9.76v3.02l-2.16,0.39c-0.97,2.62-1.83,4.9-2.57,6.86
					c-0.74,1.96-1.38,3.65-1.92,5.09c-0.54,1.43-1,2.64-1.37,3.62s-0.68,1.79-0.94,2.44c-0.25,0.65-0.46,1.17-0.61,1.56
					c-0.15,0.39-0.28,0.72-0.39,1c-0.58,1.51-1.15,2.85-1.74,4.03c-0.58,1.18-1.21,2.18-1.88,3.01c-0.67,0.83-1.41,1.48-2.22,1.95
					c-0.81,0.47-1.72,0.75-2.73,0.83c-0.58,0.07-1.19,0.09-1.85,0.06c-0.3-0.03-0.6-0.06-0.89-0.1c-0.29-0.04-0.5-0.1-0.63-0.18
					l0.02-4.52C159.24,41,159.6,41.07,160.01,41.14z"/>
				<path class="st0" d="M191.98,25.85c-0.04-1.94,0.22-3.81,0.79-5.6c0.57-1.79,1.39-3.37,2.47-4.75c1.08-1.38,2.37-2.48,3.89-3.3
					c1.52-0.82,3.22-1.23,5.1-1.23c1.38,0,2.61,0.21,3.67,0.64c1.06,0.43,1.96,1.04,2.68,1.85c0.73,0.81,1.28,1.8,1.66,2.97
					c0.38,1.17,0.6,2.5,0.64,4c0.03,1.29-0.08,2.55-0.32,3.79c-0.24,1.24-0.61,2.41-1.1,3.51c-0.49,1.1-1.1,2.12-1.83,3.04
					c-0.73,0.93-1.55,1.72-2.47,2.38c-0.92,0.66-1.93,1.19-3.03,1.56c-1.1,0.38-2.28,0.56-3.52,0.56c-1.38,0-2.6-0.21-3.66-0.64
					c-1.06-0.42-1.95-1.04-2.67-1.84c-0.73-0.8-1.28-1.79-1.66-2.96C192.23,28.68,192.02,27.34,191.98,25.85z M201.43,32.71
					c0.7,0,1.33-0.18,1.88-0.54c0.55-0.36,1.04-0.85,1.47-1.47c0.42-0.62,0.78-1.33,1.08-2.16c0.29-0.82,0.53-1.69,0.72-2.6
					c0.19-0.91,0.31-1.84,0.38-2.79c0.07-0.95,0.1-1.87,0.08-2.76c-0.04-2.29-0.35-3.98-0.92-5.09c-0.58-1.1-1.45-1.65-2.61-1.65
					c-0.7,0-1.33,0.18-1.89,0.54c-0.56,0.36-1.06,0.85-1.49,1.46c-0.43,0.61-0.8,1.32-1.11,2.14c-0.31,0.81-0.56,1.68-0.75,2.59
					c-0.19,0.91-0.33,1.84-0.41,2.77c-0.08,0.94-0.11,1.85-0.08,2.72c0.05,2.3,0.37,4.02,0.93,5.15
					C199.28,32.15,200.18,32.71,201.43,32.71z"/>
				<path class="st0" d="M219.58,14.36h-2.71l0.37-1.83l2.92-1.29l0.31-1.79c0.22-1.27,0.6-2.45,1.14-3.54
					c0.54-1.08,1.21-2.02,2-2.81s1.7-1.42,2.7-1.87c1.01-0.45,2.09-0.68,3.26-0.68c0.56,0,1.14,0.03,1.74,0.09
					c0.6,0.06,1.17,0.21,1.72,0.44l-1.25,3.56c-0.12-0.1-0.27-0.2-0.45-0.32c-0.18-0.12-0.38-0.23-0.62-0.33
					c-0.23-0.1-0.5-0.19-0.79-0.25c-0.29-0.06-0.62-0.09-0.98-0.09c-0.53,0-0.98,0.11-1.34,0.32c-0.36,0.21-0.65,0.53-0.89,0.96
					c-0.24,0.42-0.44,0.95-0.59,1.57c-0.15,0.62-0.29,1.35-0.41,2.19l-0.33,2.45h4.79l-0.39,3.23h-4.83l-2.57,21.02
					c-0.18,1.4-0.5,2.7-0.97,3.92c-0.47,1.21-1.08,2.27-1.83,3.17c-0.75,0.9-1.64,1.62-2.67,2.15c-1.03,0.53-2.19,0.79-3.49,0.79
					c-0.37,0-0.74-0.01-1.1-0.03c-0.36-0.02-0.71-0.05-1.03-0.08c-0.32-0.03-0.61-0.08-0.87-0.12c-0.26-0.05-0.47-0.09-0.64-0.13
					l1.13-3.62c0.07,0.03,0.23,0.09,0.49,0.2c0.26,0.1,0.56,0.21,0.89,0.31c0.34,0.1,0.68,0.19,1.03,0.27
					c0.35,0.08,0.65,0.11,0.89,0.11c0.67,0,1.21-0.39,1.62-1.17c0.41-0.78,0.71-1.88,0.9-3.29L219.58,14.36z"/>
			</g>
		</g>
		<path class="st0" d="M542.51,105.4c0-23.18,18.72-41.91,41.9-41.91c23.29,0,42.01,18.72,42.01,41.91
			c0,23.18-18.72,42.01-41.91,42.01C561.23,147.41,542.51,128.58,542.51,105.4z M559.81,105.4c0,14.48,10.78,25.8,24.71,25.8
			c13.71,0,24.6-11.32,24.6-25.8c0-14.26-10.99-25.8-24.71-25.8C570.59,79.6,559.81,91.14,559.81,105.4z"/>
	</g>
	<path class="st0" d="M656.01,50.24c-10.45-27.62-37.06-47.23-66.73-47.23v53.44c19.42,0.68,35.77,13.05,42.25,30.25
		c1.97,5.14,3.04,10.75,3.04,16.6c0,20.18-12.69,37.39-30.55,44.03c32.63-7.22,56.69-36.43,56.69-71.33
		C660.72,66.92,659.05,58.22,656.01,50.24z"/>
</g>
</svg>
