<?xml version="1.0" encoding="UTF-8"?><svg id="Layer_1" xmlns="http://www.w3.org/2000/svg" xmlns:xlink="http://www.w3.org/1999/xlink" viewBox="0 0 1000 795.91"><defs><style>.cls-1{fill:url(#linear-gradient);}.cls-2{fill:#0098db;}.cls-3{fill:url(#linear-gradient-2);}</style><linearGradient id="linear-gradient" x1="706.5" y1="742.13" x2="706.5" y2="0" gradientUnits="userSpaceOnUse"><stop offset=".42" stop-color="#fddb07"/><stop offset="1" stop-color="#faa61f"/></linearGradient><linearGradient id="linear-gradient-2" x1="547.75" y1="546.25" x2="1000" y2="546.25" gradientUnits="userSpaceOnUse"><stop offset="0" stop-color="#5eb6e4"/><stop offset="1" stop-color="#00c7b2"/></linearGradient></defs><path id="Top_Sail" class="cls-1" d="m564.27,740.83c1.56-.26,3.15-.43,4.68-.8,36.95-8.98,70.22-25.1,99.2-50.06,31.02-26.72,54.08-58.89,68.6-97.14,5.16-13.6,9.1-27.61,11.56-41.94,2.81-16.41,4.06-33,3.27-49.64-.46-9.74-1.69-19.44-2.59-29.16-1.04-11.22-4.2-21.95-7.33-32.71-7.8-26.82-20.23-51.36-37.19-73.46-25.46-33.19-56.99-59.02-95.75-75.37-10.16-4.28-20.73-7.76-31.38-10.67-10.99-3-22.26-5.03-33.48-7.11-4.93-.91-10.03-1.1-15.06-1.21-2.5-.05-2.78-1.13-2.58-3.05.22-2.12.62-4.23.62-6.35.04-84.99.05-169.98.05-254.98,0-1.47.08-3.01-.34-4.38-.69-2.29.29-2.9,2.26-2.79,6.99.37,13.98.74,20.96,1.19,4.43.28,8.86.61,13.26,1.1,4.51.5,9.02,1.1,13.49,1.89,7.16,1.26,14.32,2.52,21.4,4.12,8.39,1.89,16.74,3.97,25.02,6.28,7.17,2,14.31,4.19,21.29,6.74,40.59,14.82,77.35,36.29,110.29,64.22,46.47,39.39,81.2,87.38,104.3,143.69,4.93,12.02,9.4,24.33,12.88,36.84,3.99,14.36,6.82,29.06,9.81,43.68,1.57,7.69,2.62,15.52,3.52,23.32.72,6.26,1,12.58,1.19,18.88.33,10.75.68,21.51.54,32.26-.08,6.26-1.05,12.51-1.68,18.76-.72,7.18-1.31,14.37-2.33,21.51-1.12,7.74-2.31,15.5-4.12,23.1-3.07,12.96-6.23,25.93-10.11,38.66-6.33,20.83-14.85,40.81-25.01,60.08-29.14,55.28-69.41,100.67-121.08,135.86-25.52,17.38-52.84,31.42-82.07,41.37-15.12,5.15-30.59,9.39-46.09,13.3-9.75,2.46-19.85,3.55-29.8,5.26-.08-.43-.15-.87-.23-1.3Z"/><path id="D" class="cls-2" d="m333.04,314.19c1.17-.06,2.14-.14,3.1-.14,55.78-.01,111.57-.06,167.35.01,11.13.02,22.12,1.56,33.12,3.29,25.26,3.95,49.16,11.76,71.52,24.09,44.25,24.4,76.09,59.81,94.22,107.16,4.54,11.86,7.47,24.16,9.58,36.71,2.11,12.57,3.72,25.18,3.21,37.91-.35,8.68-1.46,17.35-2.68,25.96-1.07,7.58-2.43,15.16-4.29,22.59-1.69,6.76-4.04,13.37-6.41,19.93-4.71,12.99-11,25.21-18.5,36.81-19.53,30.23-45.49,53.45-77.17,70.4-16.31,8.73-33.53,15.14-51.46,19.44-9.31,2.23-18.85,3.61-28.36,4.83-7.97,1.02-16.04,1.72-24.07,1.73-53.9.03-107.8-.17-161.7-.28-2.43,0-4.86.22-7.46.35v-410.78Zm85.47,333.41c.38.11.57.2.75.2,29.35-.18,58.7-.49,88.05-.49,10.3,0,20.35-1.6,30.02-4.62,8.78-2.74,17.57-6.1,25.55-10.6,28.44-16.02,48.01-39.53,58.01-70.85,3.19-10,5.05-20.2,6.02-30.55,1.09-11.65.26-23.26-1.55-34.88-1.81-11.63-5.01-22.78-10.06-33.3-15.59-32.48-40.58-54.37-75.03-65.31-10.34-3.28-20.92-5.48-31.74-5.57-28.97-.23-57.94-.11-86.91-.13-1.04,0-2.07.1-3.11.15v255.94Z"/><path id="S" class="cls-2" d="m0,672.66c22.84-16.83,45.96-33.83,69.01-50.92,1.68-1.24,2.44-1.15,3.72.48,10.24,13.05,23.1,22.54,39.48,25.92,13.76,2.84,27.82,3.47,41.22-2.07,14.96-6.19,24.63-17.47,28.89-32.99,1.68-6.11,2.44-12.57.94-19.02-1.2-5.13-1.48-10.58-3.38-15.41-6.35-16.16-19-25.52-35.04-30.96-7.59-2.57-15.41-3.76-23.31-4.82-32.27-4.32-61.81-14.95-85.55-38.31-10.26-10.09-17.87-22-23.45-35.25-3.71-8.82-5.97-18.01-7.13-27.46-.64-5.21-.9-10.48-1.09-15.73-.46-13.07,1.73-25.89,6.41-37.95,10.06-25.93,26.73-46.69,50.6-61.49,10.09-6.26,20.69-11.35,31.95-14.88,13.59-4.26,27.56-5.73,41.88-4.48,10.76.94,21.34,2.64,31.65,5.64,15.42,4.48,29.46,11.84,42.41,21.34,9.48,6.95,17.6,15.3,25.7,23.73,1.46,1.52.48,2.12-.63,2.93-6.74,4.9-13.47,9.82-20.21,14.73-14.11,10.27-28.27,20.48-42.32,30.83-2.23,1.64-3.53,1.7-5.61-.34-8.89-8.72-19.7-14.34-31.8-16.68-9.77-1.89-19.72-1.8-29.01,3.14-9.39,4.99-15.54,12.57-17.46,22.92-3.3,17.74,2.47,31.19,19.61,39.74,7.9,3.94,16.33,6.17,25.14,7.02,8.91.86,17.88,1.45,26.7,2.92,32.95,5.5,61.78,18.97,83.87,44.82,9.56,11.19,16.67,23.77,21.46,37.76,3.53,10.3,5.72,20.79,7.07,31.57,1.33,10.61,1.58,21.2-.16,31.69-1.52,9.18-3.39,18.4-6.16,27.27-4.83,15.43-12.77,29.35-23.03,41.87-16.67,20.34-37.55,34.82-62.32,43.54-7.58,2.67-15.45,4.66-23.33,6.33-11.81,2.51-23.89,2.57-35.84,1.81-11.48-.73-22.82-2.87-33.99-5.95-32.43-8.96-59.7-26.28-83-50.25-1.23-1.27-2.81-2.19-3.9-3.03Z"/><path id="Bottom_Sail" class="cls-3" d="m695.89,795.81c-1.54.01-3.08.03-4.62.04-.23,0-.47,0-.7,0-.55,0-1.1,0-1.66,0-.23,0-.47,0-.7,0-.36.02-.71.04-1.07.05-.23-.01-.47-.02-.7-.04-.55.01-1.1.03-1.65.04-.24-.01-.47-.02-.71-.03-3.52-.05-7.05-.1-10.57-.15-10.57-1.41-21.22-2.4-31.7-4.34-12.16-2.26-24.31-4.82-36.19-8.23-19.52-5.6-38.11-13.71-56.25-22.83-.34-.17-.66-.37-1.63-.92,76.95-4.26,146.73-27.95,209.41-71.56,63.5-44.18,111.39-101.59,142.62-172.5,30.77-69.86,40.04-142.86,31-218.76.6.37,1.24.56,1.57,1,19.25,25.04,35.38,51.85,46.78,81.43,5.66,14.7,10.04,29.77,13.56,45.07,1.98,8.59,3.28,17.38,4.31,26.14,1.15,9.8,1.69,19.68,2.42,29.53.3,3.97.72,7.97.54,11.93-.38,8.61-.85,17.23-1.77,25.8-1.06,9.94-2.29,19.89-4.09,29.72-1.72,9.36-3.9,18.69-6.56,27.83-11.34,38.93-30.01,74.04-55.12,105.9-26.68,33.85-59.69,59.82-97.55,79.93-13.92,7.39-28.3,13.81-43.37,18.44-12.24,3.76-24.59,7.26-37.05,10.24-7.76,1.86-15.79,2.58-23.71,3.73-6.09.88-12.19,1.64-18.29,2.45-4.12,0-8.24.01-12.36.02-1.4.02-2.8.04-4.2.06Z"/></svg>