<?xml version="1.0" encoding="utf-8"?>
<!-- Generator: Adobe Illustrator 27.8.1, SVG Export Plug-In . SVG Version: 6.00 Build 0)  -->
<svg version="1.1" id="Layer_1" xmlns="http://www.w3.org/2000/svg" xmlns:xlink="http://www.w3.org/1999/xlink" x="0px" y="0px"
	 viewBox="0 0 672.41 157.43" style="enable-background:new 0 0 672.41 157.43;" xml:space="preserve">
<style type="text/css">
	.st0{fill:#009ADE;}
	.st1{fill:#FFFFFF;}
</style>
<g>
	<g>
		<path class="st0" d="M658.92,60.22c0.48,3.44,0.73,7,0.73,10.57c0,42.43-33.07,77.17-74.91,79.56
			c26.61,14.34,60.24,6.35,77.52-19.27C677.27,108.76,675.19,80.05,658.92,60.22z"/>
		<path class="st1" d="M645.41,49.43c-10.28-27.18-36.46-46.47-65.65-46.47v52.58c19.1,0.67,35.19,12.83,41.57,29.76
			c1.94,5.06,2.99,10.57,2.99,16.33c0,19.86-12.48,36.78-30.05,43.32c32.1-7.1,55.78-35.84,55.78-70.17
			C650.04,65.84,648.4,57.28,645.41,49.43z"/>
		<path class="st0" d="M645.41,49.43c-10.28-27.18-36.46-46.47-65.65-46.47v52.58c19.1,0.67,35.19,12.83,41.57,29.76
			c1.94,5.06,2.99,10.57,2.99,16.33c0,19.86-12.48,36.78-30.05,43.32c32.1-7.1,55.78-35.84,55.78-70.17
			C650.04,65.84,648.4,57.28,645.41,49.43z"/>
		<g>
			<g>
				<path class="st0" d="M0.75,85.49C0.75,72,13.17,62.46,24.2,62.46c7.92,0,15.42,3,21.52,10.28l-13.06,9.53
					c-2.14-2.25-5.68-3.96-8.46-3.96c-4.39,0-7.39,2.68-7.39,7.07c0,3.64,2.68,6.96,11.14,7.5c13.6,0.86,24.84,10.07,24.84,25.49
					c0,15.53-12.96,26.66-26.99,26.66c-9.1,0-18.2-3.32-25.81-11.67l13.71-10.07c3.64,4.61,7.39,5.78,12.1,5.78
					c5.46,0,9.74-4.39,9.74-9.53c0-6.42-4.28-10.39-11.99-11.24C9.74,106.69,0.75,98.02,0.75,85.49z"/>
				<path class="st0" d="M114.56,132.93H75.91l-5.14,10.71H53.63l42.09-81.17l42.19,81.17h-18.1L114.56,132.93z M83.08,117.93h24.2
					L95.07,93.09L83.08,117.93z"/>
				<path class="st0" d="M204.82,63.86h16.6v81.17L164.67,97.8v45.83h-16.6V62.36l56.76,47.65V63.86z"/>
			</g>
			<path class="st0" d="M298.12,63.86c23.02,0,41.76,17.13,41.76,39.84c0,22.92-18.74,39.94-41.66,39.94h-32.45V63.86H298.12z
				 M298.23,128.64c13.81,0,24.63-10.6,24.63-24.95c0-14.46-10.82-24.84-24.74-24.84h-15.74v49.79H298.23z"/>
			<path class="st0" d="M368.79,143.63h-16.6V63.86h16.6V143.63z"/>
			<path class="st0" d="M385.79,143.63V63.86h41.54v14.99h-24.95v14.88h28.97v14.89h-28.97v20.02h32.87v14.99H385.79z"/>
			<path class="st0" d="M525.55,102.92c0,23.56-18.42,42.51-41.33,42.51c-22.81,0-41.01-18.42-41.01-41.23
				c0-22.81,18.2-41.33,40.91-41.33c14.88,0,28.06,7.71,35.23,19.38l-13.28,9.64c-4.18-7.82-12.42-13.17-21.85-13.17
				c-13.39,0-23.99,11.35-23.99,25.49c0,14.03,10.6,25.27,23.99,25.27c9.64,0,18.53-4.93,22.06-14.24h-21.63v-14.78h40.91V102.92z"
				/>
		</g>
		<g>
			<g>
				<path class="st0" d="M6.4,31.96l4.79-0.73V5.8L4.86,6.29l-1.39,3.96L0.6,10.37l0.49-7.46h25.78l-0.04,7.36l-2.35,0.26
					l-1.33-4.25L16.95,5.8v25.41l4.85,0.75v2.35H6.4V31.96z"/>
				<path class="st0" d="M29.36,32l2.95-0.51V5.66l-3.05-0.97V2.32l7.7-0.93l1.09,0.4l-0.02,9.52l-0.28,2.69
					c0.61-0.53,1.25-0.97,1.92-1.33c0.67-0.36,1.35-0.66,2.03-0.89c0.68-0.23,1.34-0.39,1.98-0.5c0.64-0.1,1.22-0.15,1.75-0.15
					c1.41,0,2.56,0.23,3.45,0.69c0.88,0.46,1.57,1.13,2.07,2.03c0.5,0.9,0.83,2.01,0.99,3.35c0.16,1.34,0.24,2.87,0.22,4.61v9.68
					L55.04,32v2.3l-11.75-0.02V32l3.13-0.53v-8.37c0-1.27-0.03-2.41-0.1-3.42c-0.07-1.01-0.24-1.87-0.51-2.57
					c-0.27-0.7-0.68-1.24-1.24-1.62c-0.56-0.38-1.33-0.57-2.31-0.57c-0.73,0-1.45,0.09-2.16,0.27c-0.71,0.18-1.4,0.51-2.04,0.98
					v15.3L40.46,32v2.3h-11.1V32z"/>
				<path class="st0" d="M57.93,23.35c0-1.73,0.28-3.34,0.83-4.83c0.55-1.5,1.34-2.79,2.38-3.89c1.03-1.1,2.28-1.97,3.74-2.61
					c1.46-0.64,3.1-0.97,4.92-0.98c1.44-0.01,2.7,0.18,3.78,0.58c1.08,0.4,1.98,0.96,2.7,1.7c0.72,0.73,1.27,1.62,1.65,2.67
					c0.38,1.04,0.59,2.21,0.65,3.49c0.03,0.85,0.01,1.59-0.06,2.23c-0.07,0.64-0.13,1.22-0.2,1.75h-14.5c0,0.04,0,0.08,0.01,0.11
					c0.01,0.03,0.01,0.06,0.01,0.09c0.08,1.39,0.31,2.57,0.7,3.54c0.38,0.97,0.89,1.76,1.52,2.37c0.63,0.61,1.35,1.06,2.17,1.34
					s1.7,0.42,2.63,0.42c0.5,0,1.03-0.03,1.59-0.08c0.56-0.05,1.11-0.13,1.66-0.24c0.55-0.11,1.07-0.24,1.59-0.4
					c0.51-0.16,0.98-0.35,1.42-0.57l0.93,2.18c-0.46,0.39-1.03,0.75-1.72,1.08c-0.69,0.33-1.44,0.61-2.24,0.84
					c-0.81,0.23-1.66,0.4-2.56,0.53c-0.9,0.12-1.79,0.17-2.68,0.16c-1.74-0.01-3.29-0.29-4.64-0.83c-1.35-0.54-2.5-1.3-3.43-2.28
					c-0.93-0.98-1.63-2.18-2.11-3.59C58.17,26.72,57.93,25.13,57.93,23.35z M72.83,20.58c0.04-0.58,0.07-1.18,0.08-1.81
					c0.01-0.63-0.02-1.23-0.11-1.81c-0.09-0.58-0.25-1.11-0.49-1.6c-0.24-0.49-0.58-0.88-1.04-1.19c-0.28-0.19-0.61-0.34-0.99-0.44
					c-0.38-0.11-0.81-0.16-1.29-0.16c-0.8,0-1.49,0.18-2.09,0.55s-1.11,0.86-1.53,1.5c-0.42,0.63-0.75,1.38-1,2.23
					c-0.25,0.86-0.41,1.77-0.5,2.74H72.83z"/>
				<path class="st0" d="M92.97,19.67c0-1.74,0.22-3.37,0.65-4.89c0.43-1.52,1.03-2.91,1.81-4.17s1.69-2.39,2.76-3.38
					s2.23-1.83,3.51-2.51c1.27-0.68,2.62-1.2,4.04-1.56c1.42-0.36,2.88-0.54,4.38-0.54c1.01,0,1.94,0.05,2.78,0.16
					c0.84,0.11,1.61,0.23,2.3,0.37c0.69,0.14,1.32,0.29,1.89,0.44c0.57,0.15,1.08,0.28,1.54,0.37l-0.38,6.99h-3.32l-1.29-3.8
					c-0.27-0.24-0.55-0.45-0.85-0.63c-0.3-0.18-0.64-0.32-1.04-0.44c-0.4-0.11-0.86-0.2-1.38-0.26c-0.53-0.06-1.15-0.09-1.88-0.09
					c-1.25,0-2.44,0.27-3.56,0.82c-1.12,0.55-2.1,1.34-2.93,2.39c-0.84,1.04-1.5,2.33-1.98,3.86c-0.48,1.53-0.73,3.28-0.73,5.25
					c0,1.21,0.09,2.4,0.27,3.56c0.18,1.16,0.45,2.25,0.82,3.29c0.36,1.03,0.82,1.98,1.35,2.85c0.54,0.87,1.17,1.62,1.88,2.24
					c0.71,0.63,1.51,1.12,2.39,1.47c0.88,0.35,1.84,0.53,2.89,0.53c0.84,0,1.56-0.05,2.17-0.15c0.61-0.1,1.14-0.24,1.59-0.41
					c0.44-0.18,0.81-0.38,1.1-0.63c0.29-0.24,0.53-0.51,0.72-0.79l1.44-3.64h2.75v6.61c-0.5,0.03-1.04,0.14-1.63,0.33
					c-0.59,0.2-1.28,0.41-2.09,0.64c-0.81,0.23-1.76,0.44-2.85,0.63c-1.09,0.19-2.39,0.28-3.88,0.28c-2.37,0-4.5-0.38-6.38-1.15
					c-1.88-0.77-3.48-1.83-4.79-3.18c-1.31-1.35-2.32-2.96-3.01-4.82C93.31,23.86,92.97,21.84,92.97,19.67z"/>
				<path class="st0" d="M122.56,32l3.03-0.53V17.2l-2.67-2.28V13.3l6.97-2.16l1.35,0.47v19.91l3.07,0.49v2.3h-11.77V32z
					 M127.72,7.08c-0.45,0-0.88-0.07-1.29-0.22c-0.42-0.15-0.79-0.36-1.11-0.64c-0.32-0.28-0.58-0.61-0.78-1.01
					c-0.2-0.4-0.29-0.85-0.29-1.34c0-0.55,0.12-1.06,0.36-1.54c0.24-0.47,0.56-0.88,0.96-1.22s0.84-0.61,1.33-0.81
					c0.49-0.2,0.98-0.29,1.47-0.29c0.61,0,1.13,0.09,1.56,0.26c0.43,0.18,0.79,0.41,1.07,0.7c0.28,0.29,0.49,0.63,0.63,1.03
					c0.13,0.4,0.2,0.82,0.2,1.26c0,0.58-0.12,1.11-0.35,1.58c-0.24,0.47-0.55,0.87-0.93,1.2c-0.38,0.33-0.82,0.59-1.31,0.77
					C128.73,6.98,128.23,7.08,127.72,7.08z"/>
				<path class="st0" d="M139.63,14.84h-3.07v-1.96c0.46-0.09,0.87-0.19,1.24-0.27c0.37-0.09,0.7-0.19,0.99-0.3
					c0.29-0.11,0.55-0.25,0.79-0.41c0.24-0.16,0.45-0.38,0.64-0.65c0.16-0.2,0.33-0.49,0.52-0.85c0.18-0.36,0.36-0.77,0.55-1.21
					c0.18-0.44,0.36-0.92,0.53-1.41c0.17-0.5,0.32-0.99,0.46-1.48h2.79v5.4h6.85v3.15h-6.67v8.59c0,1.7,0.03,3.06,0.09,4.08
					s0.18,1.81,0.36,2.37c0.18,0.55,0.43,0.92,0.74,1.09c0.31,0.18,0.72,0.26,1.23,0.26c0.3,0,0.63-0.02,1-0.07
					c0.37-0.05,0.73-0.11,1.08-0.18c0.35-0.07,0.68-0.16,0.98-0.26c0.3-0.1,0.54-0.2,0.72-0.31l0.87,2.08
					c-0.31,0.34-0.73,0.65-1.27,0.93c-0.54,0.28-1.14,0.53-1.81,0.73s-1.37,0.36-2.1,0.47c-0.73,0.11-1.46,0.17-2.17,0.17
					c-0.98,0-1.81-0.13-2.49-0.39c-0.67-0.26-1.22-0.67-1.64-1.21c-0.42-0.55-0.72-1.24-0.91-2.09c-0.19-0.85-0.28-1.86-0.28-3.03
					V14.84z"/>
				<path class="st0" d="M157.43,40.47c0.41,0.07,0.86,0.09,1.34,0.08c0.39,0,0.84-0.07,1.33-0.21c0.5-0.14,1-0.43,1.52-0.87
					c0.51-0.44,1.01-1.07,1.5-1.89c0.49-0.82,0.9-1.91,1.25-3.28h-0.99l-8.03-19.19l-1.9-0.46v-2.97h10.76v2.97l-2.57,0.51
					l4.31,11.97l0.75,3.07l0.87-3.07l3.64-12.05l-2.93-0.42v-2.97h9.6v2.97l-2.12,0.38c-0.96,2.57-1.8,4.82-2.53,6.75
					c-0.73,1.93-1.36,3.6-1.89,5c-0.53,1.41-0.98,2.6-1.34,3.56c-0.36,0.96-0.67,1.77-0.92,2.41c-0.25,0.64-0.45,1.15-0.6,1.54
					c-0.15,0.38-0.28,0.71-0.38,0.98c-0.57,1.48-1.14,2.8-1.71,3.96c-0.57,1.16-1.19,2.15-1.85,2.96c-0.66,0.82-1.39,1.46-2.18,1.92
					c-0.8,0.46-1.69,0.74-2.69,0.82c-0.57,0.07-1.17,0.09-1.82,0.06c-0.3-0.03-0.59-0.06-0.88-0.1c-0.29-0.04-0.5-0.1-0.62-0.18
					l0.02-4.45C156.66,40.34,157.02,40.41,157.43,40.47z"/>
				<path class="st0" d="M188.88,25.43c-0.04-1.91,0.22-3.75,0.78-5.51c0.56-1.76,1.37-3.32,2.43-4.67
					c1.06-1.35,2.34-2.44,3.83-3.24c1.5-0.81,3.17-1.21,5.01-1.21c1.36,0,2.56,0.21,3.61,0.63c1.04,0.42,1.92,1.03,2.64,1.82
					c0.71,0.8,1.26,1.77,1.64,2.92c0.38,1.15,0.59,2.46,0.63,3.93c0.03,1.27-0.08,2.51-0.31,3.73c-0.24,1.22-0.6,2.37-1.08,3.46
					c-0.49,1.08-1.09,2.08-1.8,2.99c-0.71,0.91-1.52,1.69-2.43,2.35c-0.9,0.65-1.9,1.17-2.98,1.54c-1.09,0.37-2.24,0.56-3.47,0.56
					c-1.36,0-2.56-0.21-3.6-0.63c-1.04-0.42-1.91-1.02-2.63-1.81c-0.71-0.79-1.26-1.76-1.64-2.91
					C189.12,28.21,188.92,26.9,188.88,25.43z M198.17,32.18c0.69,0,1.3-0.18,1.85-0.54c0.55-0.36,1.03-0.84,1.45-1.45
					c0.42-0.61,0.77-1.31,1.06-2.12c0.29-0.81,0.53-1.66,0.71-2.56c0.18-0.9,0.31-1.81,0.37-2.75c0.07-0.94,0.09-1.84,0.08-2.72
					c-0.04-2.25-0.34-3.92-0.91-5c-0.57-1.09-1.42-1.63-2.57-1.63c-0.69,0-1.31,0.18-1.86,0.54c-0.55,0.36-1.04,0.84-1.47,1.44
					c-0.42,0.6-0.79,1.3-1.09,2.1c-0.3,0.8-0.55,1.65-0.74,2.55c-0.19,0.9-0.32,1.81-0.4,2.73c-0.08,0.92-0.11,1.82-0.08,2.68
					c0.05,2.26,0.36,3.95,0.92,5.06C196.06,31.63,196.95,32.18,198.17,32.18z"/>
				<path class="st0" d="M216.03,14.13h-2.67l0.36-1.8l2.87-1.27l0.3-1.76c0.22-1.25,0.59-2.41,1.12-3.48
					c0.53-1.06,1.19-1.99,1.97-2.77s1.67-1.39,2.66-1.84s2.06-0.67,3.2-0.67c0.55,0,1.12,0.03,1.71,0.09
					c0.59,0.06,1.15,0.21,1.69,0.43l-1.23,3.5c-0.12-0.09-0.27-0.2-0.44-0.31c-0.18-0.11-0.38-0.22-0.61-0.32
					c-0.23-0.1-0.49-0.18-0.78-0.24c-0.29-0.06-0.61-0.09-0.96-0.09c-0.53,0-0.96,0.1-1.31,0.31c-0.35,0.21-0.64,0.52-0.88,0.94
					c-0.24,0.42-0.43,0.93-0.58,1.55c-0.15,0.61-0.28,1.33-0.4,2.15l-0.32,2.41h4.71l-0.38,3.17h-4.75l-2.53,20.68
					c-0.18,1.37-0.49,2.66-0.95,3.85c-0.46,1.19-1.06,2.23-1.8,3.12c-0.74,0.89-1.62,1.59-2.63,2.11s-2.16,0.78-3.44,0.78
					c-0.36,0-0.72-0.01-1.08-0.03c-0.36-0.02-0.69-0.05-1.01-0.08c-0.32-0.03-0.6-0.07-0.86-0.12c-0.26-0.05-0.47-0.09-0.63-0.13
					l1.11-3.56c0.07,0.03,0.23,0.09,0.49,0.19c0.26,0.1,0.55,0.2,0.88,0.3c0.33,0.1,0.67,0.19,1.01,0.26
					c0.34,0.07,0.64,0.11,0.88,0.11c0.66,0,1.19-0.38,1.6-1.15c0.4-0.77,0.7-1.85,0.89-3.23L216.03,14.13z"/>
			</g>
		</g>
		<path class="st0" d="M533.74,103.69c0-22.81,18.42-41.23,41.23-41.23c22.92,0,41.34,18.42,41.34,41.23
			c0,22.81-18.42,41.33-41.23,41.33C552.16,145.03,533.74,126.5,533.74,103.69z M550.76,103.69c0,14.24,10.6,25.38,24.31,25.38
			c13.49,0,24.2-11.14,24.2-25.38c0-14.03-10.82-25.38-24.31-25.38C561.37,78.31,550.76,89.66,550.76,103.69z"/>
	</g>
</g>
</svg>
