<?xml version="1.0" encoding="utf-8"?>
<!-- Generator: Adobe Illustrator 27.8.1, SVG Export Plug-In . SVG Version: 6.00 Build 0)  -->
<svg version="1.1" xmlns="http://www.w3.org/2000/svg" xmlns:xlink="http://www.w3.org/1999/xlink" x="0px" y="0px"
	 viewBox="0 0 304.35 71.26" style="enable-background:new 0 0 304.35 71.26;" xml:space="preserve">
<style type="text/css">
	.st0{fill:url(#SVGID_1_);}
	.st1{fill:#009ADE;}
	.st2{fill:#FFFFFF;}
	.st3{fill:url(#SVGID_00000167355049621196268980000000982000955516424331_);}
</style>
<g id="bkrnd">
</g>
<g id="Layer_1">
	<linearGradient id="SVGID_1_" gradientUnits="userSpaceOnUse" x1="306.4825" y1="35.7389" x2="244.0352" y2="101.1599">
		<stop  offset="0.1127" style="stop-color:#00C4B3"/>
		<stop  offset="0.6068" style="stop-color:#00AFC9"/>
		<stop  offset="1" style="stop-color:#009BDE"/>
	</linearGradient>
	<path class="st0" d="M298.25,27.26c0.22,1.56,0.33,3.17,0.33,4.79c0,19.21-14.97,34.93-33.91,36.01
		c12.04,6.49,27.27,2.87,35.09-8.72C306.55,49.23,305.61,36.23,298.25,27.26z"/>
	<g>
		<g>
			<path class="st1" d="M0.34,38.69c0-6.11,5.62-10.42,10.61-10.42c3.59,0,6.98,1.36,9.74,4.65l-5.91,4.31
				c-0.97-1.02-2.57-1.79-3.83-1.79c-1.99,0-3.34,1.21-3.34,3.2c0,1.65,1.21,3.15,5.04,3.39c6.16,0.39,11.25,4.56,11.25,11.54
				c0,7.03-5.86,12.07-12.21,12.07c-4.12,0-8.24-1.5-11.68-5.28l6.2-4.56c1.65,2.08,3.34,2.62,5.48,2.62c2.47,0,4.41-1.99,4.41-4.31
				c0-2.91-1.94-4.7-5.43-5.09C4.41,48.29,0.34,44.37,0.34,38.69z"/>
			<path class="st1" d="M51.85,60.17h-17.5l-2.33,4.85h-7.76l19.05-36.74l19.1,36.74h-8.19L51.85,60.17z M37.6,53.38h10.95
				l-5.53-11.25L37.6,53.38z"/>
			<path class="st1" d="M92.71,28.9h7.51v36.74L74.53,44.27v20.75h-7.51V28.22l25.69,21.57V28.9z"/>
		</g>
		<path class="st1" d="M134.94,28.9c10.42,0,18.9,7.76,18.9,18.03c0,10.37-8.48,18.08-18.85,18.08H120.3V28.9H134.94z M134.99,58.23
			c6.25,0,11.15-4.8,11.15-11.29c0-6.54-4.9-11.25-11.2-11.25h-7.12v22.54H134.99z"/>
		<path class="st1" d="M166.93,65.01h-7.51V28.9h7.51V65.01z"/>
		<path class="st1" d="M174.62,65.01V28.9h18.8v6.79h-11.29v6.74h13.11v6.74h-13.11v9.06h14.88v6.79H174.62z"/>
		<path class="st1" d="M237.88,46.59c0,10.66-8.34,19.24-18.71,19.24c-10.32,0-18.56-8.34-18.56-18.66
			c0-10.32,8.24-18.71,18.52-18.71c6.74,0,12.7,3.49,15.95,8.77l-6.01,4.36c-1.89-3.54-5.62-5.96-9.89-5.96
			c-6.06,0-10.86,5.14-10.86,11.54c0,6.35,4.8,11.44,10.86,11.44c4.36,0,8.39-2.23,9.98-6.45h-9.79v-6.69h18.52V46.59z"/>
	</g>
	<g>
		<g>
			<path class="st2" d="M2.9,14.47l2.17-0.33V2.63L2.2,2.85L1.57,4.64l-1.3,0.05l0.22-3.38h11.67l-0.02,3.33l-1.06,0.12l-0.6-1.92
				l-2.8-0.22v11.5l2.2,0.34v1.06H2.9V14.47z"/>
			<path class="st2" d="M13.29,14.49l1.34-0.23V2.56l-1.38-0.44V1.05l3.49-0.42l0.49,0.18l-0.01,4.31l-0.13,1.22
				c0.27-0.24,0.56-0.44,0.87-0.6c0.3-0.16,0.61-0.3,0.92-0.4c0.31-0.1,0.61-0.18,0.9-0.22c0.29-0.05,0.55-0.07,0.79-0.07
				c0.64,0,1.16,0.1,1.56,0.31c0.4,0.21,0.71,0.51,0.94,0.92c0.23,0.41,0.38,0.91,0.45,1.51c0.07,0.6,0.11,1.3,0.1,2.09v4.38
				l1.3,0.23v1.04l-5.32-0.01v-1.03l1.42-0.24v-3.79c0-0.57-0.02-1.09-0.05-1.55c-0.03-0.46-0.11-0.84-0.23-1.16
				c-0.12-0.32-0.31-0.56-0.56-0.73c-0.25-0.17-0.6-0.26-1.05-0.26c-0.33,0-0.66,0.04-0.98,0.12c-0.32,0.08-0.63,0.23-0.92,0.44
				v6.93l1.09,0.23v1.04h-5.02V14.49z"/>
			<path class="st2" d="M26.22,10.57c0-0.78,0.12-1.51,0.38-2.19c0.25-0.68,0.61-1.26,1.08-1.76c0.47-0.5,1.03-0.89,1.69-1.18
				C30.03,5.15,30.77,5,31.59,5c0.65-0.01,1.22,0.08,1.71,0.26c0.49,0.18,0.9,0.44,1.22,0.77c0.33,0.33,0.58,0.74,0.75,1.21
				c0.17,0.47,0.27,1,0.29,1.58c0.01,0.38,0,0.72-0.03,1.01c-0.03,0.29-0.06,0.55-0.09,0.79h-6.56c0,0.02,0,0.03,0,0.05
				c0,0.02,0,0.03,0,0.04c0.04,0.63,0.14,1.16,0.32,1.6c0.17,0.44,0.4,0.8,0.69,1.07c0.28,0.28,0.61,0.48,0.98,0.61
				c0.37,0.13,0.77,0.19,1.19,0.19c0.23,0,0.47-0.01,0.72-0.04c0.25-0.02,0.5-0.06,0.75-0.11c0.25-0.05,0.49-0.11,0.72-0.18
				c0.23-0.07,0.45-0.16,0.64-0.26l0.42,0.99c-0.21,0.18-0.47,0.34-0.78,0.49c-0.31,0.15-0.65,0.28-1.02,0.38
				c-0.37,0.1-0.75,0.18-1.16,0.24c-0.41,0.05-0.81,0.08-1.21,0.07c-0.79-0.01-1.49-0.13-2.1-0.38c-0.61-0.24-1.13-0.59-1.55-1.03
				c-0.42-0.45-0.74-0.99-0.96-1.62C26.33,12.1,26.22,11.37,26.22,10.57z M32.97,9.32C32.98,9.05,33,8.78,33,8.5
				c0.01-0.28-0.01-0.56-0.05-0.82c-0.04-0.26-0.11-0.5-0.22-0.72c-0.11-0.22-0.26-0.4-0.47-0.54c-0.13-0.09-0.28-0.15-0.45-0.2
				c-0.17-0.05-0.37-0.07-0.59-0.07c-0.36,0-0.68,0.08-0.95,0.25s-0.5,0.39-0.69,0.68c-0.19,0.29-0.34,0.62-0.45,1.01
				c-0.11,0.39-0.19,0.8-0.22,1.24H32.97z"/>
			<path class="st2" d="M42.08,8.9c0-0.79,0.1-1.53,0.29-2.21s0.47-1.32,0.82-1.89c0.35-0.57,0.77-1.08,1.25-1.53
				c0.48-0.45,1.01-0.83,1.59-1.13c0.58-0.31,1.19-0.54,1.83-0.7c0.64-0.16,1.3-0.24,1.98-0.24c0.46,0,0.88,0.02,1.26,0.07
				c0.38,0.05,0.73,0.11,1.04,0.17c0.31,0.06,0.6,0.13,0.86,0.2c0.26,0.07,0.49,0.13,0.7,0.17l-0.17,3.17h-1.5l-0.59-1.72
				c-0.12-0.11-0.25-0.2-0.38-0.28c-0.13-0.08-0.29-0.15-0.47-0.2c-0.18-0.05-0.39-0.09-0.63-0.12c-0.24-0.03-0.52-0.04-0.85-0.04
				c-0.57,0-1.1,0.12-1.61,0.37c-0.51,0.25-0.95,0.61-1.33,1.08c-0.38,0.47-0.68,1.06-0.9,1.75c-0.22,0.69-0.33,1.48-0.33,2.37
				c0,0.55,0.04,1.09,0.12,1.61c0.08,0.52,0.21,1.02,0.37,1.49c0.16,0.47,0.37,0.9,0.61,1.29c0.24,0.39,0.53,0.73,0.85,1.02
				c0.32,0.28,0.68,0.51,1.08,0.66c0.4,0.16,0.83,0.24,1.31,0.24c0.38,0,0.71-0.02,0.98-0.07c0.28-0.05,0.52-0.11,0.72-0.19
				c0.2-0.08,0.37-0.17,0.5-0.28c0.13-0.11,0.24-0.23,0.32-0.36l0.65-1.65h1.24v2.99c-0.23,0.01-0.47,0.06-0.74,0.15
				c-0.27,0.09-0.58,0.18-0.95,0.29c-0.37,0.1-0.8,0.2-1.29,0.28c-0.49,0.09-1.08,0.13-1.76,0.13c-1.07,0-2.04-0.17-2.89-0.52
				c-0.85-0.35-1.57-0.83-2.17-1.44s-1.05-1.34-1.36-2.18C42.24,10.8,42.08,9.89,42.08,8.9z"/>
			<path class="st2" d="M55.48,14.49l1.37-0.24V7.79l-1.21-1.03V6.02l3.16-0.98l0.61,0.21v9.01l1.39,0.22v1.04h-5.33V14.49z
				 M57.81,3.2c-0.2,0-0.4-0.03-0.59-0.1c-0.19-0.07-0.36-0.16-0.5-0.29c-0.15-0.12-0.26-0.28-0.35-0.46
				c-0.09-0.18-0.13-0.38-0.13-0.61c0-0.25,0.06-0.48,0.16-0.7c0.11-0.21,0.25-0.4,0.43-0.55c0.18-0.16,0.38-0.28,0.6-0.37
				C57.66,0.04,57.88,0,58.1,0c0.27,0,0.51,0.04,0.7,0.12C59,0.2,59.16,0.3,59.29,0.43c0.13,0.13,0.22,0.29,0.28,0.47
				c0.06,0.18,0.09,0.37,0.09,0.57c0,0.26-0.05,0.5-0.16,0.71c-0.11,0.21-0.25,0.4-0.42,0.54C58.91,2.88,58.71,3,58.49,3.08
				C58.27,3.16,58.04,3.2,57.81,3.2z"/>
			<path class="st2" d="M63.2,6.72h-1.39V5.83c0.21-0.04,0.39-0.08,0.56-0.12c0.17-0.04,0.32-0.09,0.45-0.14
				c0.13-0.05,0.25-0.11,0.36-0.19c0.11-0.07,0.2-0.17,0.29-0.29C63.54,5,63.62,4.87,63.7,4.7c0.08-0.16,0.16-0.35,0.25-0.55
				c0.08-0.2,0.16-0.41,0.24-0.64s0.14-0.45,0.21-0.67h1.26v2.44h3.1v1.43h-3.02v3.89c0,0.77,0.01,1.39,0.04,1.85
				s0.08,0.82,0.16,1.07c0.08,0.25,0.19,0.41,0.33,0.49c0.14,0.08,0.33,0.12,0.56,0.12c0.13,0,0.29-0.01,0.45-0.03
				c0.17-0.02,0.33-0.05,0.49-0.08c0.16-0.03,0.31-0.07,0.44-0.12c0.14-0.05,0.25-0.09,0.32-0.14l0.39,0.94
				c-0.14,0.15-0.33,0.29-0.58,0.42c-0.24,0.13-0.52,0.24-0.82,0.33s-0.62,0.16-0.95,0.21c-0.33,0.05-0.66,0.08-0.98,0.08
				c-0.45,0-0.82-0.06-1.13-0.18c-0.3-0.12-0.55-0.3-0.74-0.55c-0.19-0.25-0.33-0.56-0.41-0.95c-0.09-0.38-0.13-0.84-0.13-1.37V6.72
				z"/>
			<path class="st2" d="M71.26,18.32c0.19,0.03,0.39,0.04,0.61,0.04c0.18,0,0.38-0.03,0.6-0.1c0.23-0.06,0.45-0.2,0.69-0.39
				c0.23-0.2,0.46-0.48,0.68-0.86c0.22-0.37,0.41-0.87,0.57-1.48h-0.45l-3.63-8.68l-0.86-0.21V5.29h4.87v1.35l-1.16,0.23l1.95,5.42
				l0.34,1.39l0.39-1.39l1.65-5.45l-1.33-0.19V5.29h4.35v1.35l-0.96,0.17c-0.43,1.17-0.81,2.18-1.14,3.06
				c-0.33,0.87-0.61,1.63-0.86,2.26c-0.24,0.64-0.44,1.17-0.61,1.61c-0.16,0.44-0.3,0.8-0.42,1.09c-0.11,0.29-0.2,0.52-0.27,0.7
				c-0.07,0.17-0.13,0.32-0.17,0.44c-0.26,0.67-0.51,1.27-0.77,1.79c-0.26,0.52-0.54,0.97-0.84,1.34c-0.3,0.37-0.63,0.66-0.99,0.87
				c-0.36,0.21-0.77,0.33-1.22,0.37c-0.26,0.03-0.53,0.04-0.82,0.03c-0.13-0.01-0.27-0.03-0.4-0.05c-0.13-0.02-0.22-0.05-0.28-0.08
				l0.01-2.01C70.91,18.26,71.07,18.29,71.26,18.32z"/>
			<path class="st2" d="M85.49,11.51c-0.02-0.87,0.1-1.7,0.35-2.49c0.25-0.8,0.62-1.5,1.1-2.11c0.48-0.61,1.06-1.1,1.73-1.47
				c0.68-0.37,1.43-0.55,2.27-0.55c0.62,0,1.16,0.09,1.63,0.28c0.47,0.19,0.87,0.46,1.19,0.82c0.32,0.36,0.57,0.8,0.74,1.32
				c0.17,0.52,0.27,1.12,0.28,1.78c0.01,0.57-0.03,1.14-0.14,1.69c-0.11,0.55-0.27,1.07-0.49,1.56c-0.22,0.49-0.49,0.94-0.81,1.35
				c-0.32,0.41-0.69,0.77-1.1,1.06c-0.41,0.3-0.86,0.53-1.35,0.7c-0.49,0.17-1.01,0.25-1.57,0.25c-0.62,0-1.16-0.09-1.63-0.28
				c-0.47-0.19-0.87-0.46-1.19-0.82c-0.32-0.36-0.57-0.8-0.74-1.32C85.6,12.77,85.51,12.18,85.49,11.51z M89.7,14.57
				c0.31,0,0.59-0.08,0.84-0.24c0.25-0.16,0.47-0.38,0.65-0.65c0.19-0.27,0.35-0.59,0.48-0.96c0.13-0.37,0.24-0.75,0.32-1.16
				c0.08-0.41,0.14-0.82,0.17-1.24c0.03-0.42,0.04-0.83,0.04-1.23c-0.02-1.02-0.16-1.77-0.41-2.26c-0.26-0.49-0.64-0.74-1.16-0.74
				c-0.31,0-0.59,0.08-0.84,0.24c-0.25,0.16-0.47,0.38-0.66,0.65c-0.19,0.27-0.36,0.59-0.49,0.95c-0.14,0.36-0.25,0.75-0.33,1.15
				c-0.09,0.41-0.15,0.82-0.18,1.24c-0.04,0.42-0.05,0.82-0.04,1.21c0.02,1.02,0.16,1.79,0.42,2.29
				C88.74,14.32,89.14,14.57,89.7,14.57z"/>
			<path class="st2" d="M97.78,6.4h-1.21l0.16-0.81l1.3-0.58l0.14-0.8c0.1-0.57,0.27-1.09,0.51-1.57c0.24-0.48,0.54-0.9,0.89-1.25
				c0.35-0.35,0.76-0.63,1.2-0.83c0.45-0.2,0.93-0.3,1.45-0.3c0.25,0,0.51,0.01,0.77,0.04c0.27,0.03,0.52,0.09,0.76,0.2l-0.56,1.58
				c-0.05-0.04-0.12-0.09-0.2-0.14c-0.08-0.05-0.17-0.1-0.27-0.15c-0.1-0.05-0.22-0.08-0.35-0.11c-0.13-0.03-0.28-0.04-0.43-0.04
				c-0.24,0-0.44,0.05-0.59,0.14c-0.16,0.09-0.29,0.24-0.4,0.43c-0.11,0.19-0.19,0.42-0.26,0.7c-0.07,0.28-0.13,0.6-0.18,0.97
				l-0.15,1.09h2.13l-0.17,1.44h-2.15l-1.14,9.36c-0.08,0.62-0.22,1.2-0.43,1.74c-0.21,0.54-0.48,1.01-0.81,1.41
				c-0.34,0.4-0.73,0.72-1.19,0.96s-0.98,0.35-1.56,0.35c-0.16,0-0.33,0-0.49-0.01c-0.16-0.01-0.31-0.02-0.46-0.04
				c-0.14-0.02-0.27-0.03-0.39-0.05c-0.12-0.02-0.21-0.04-0.28-0.06l0.5-1.61c0.03,0.01,0.1,0.04,0.22,0.09
				c0.12,0.05,0.25,0.09,0.4,0.14c0.15,0.05,0.3,0.09,0.46,0.12c0.16,0.03,0.29,0.05,0.4,0.05c0.3,0,0.54-0.17,0.72-0.52
				c0.18-0.35,0.32-0.84,0.4-1.46L97.78,6.4z"/>
		</g>
	</g>
	<path class="st1" d="M241.59,46.93c0-10.32,8.34-18.66,18.66-18.66c10.37,0,18.71,8.34,18.71,18.66c0,10.32-8.34,18.71-18.66,18.71
		C249.92,65.64,241.59,57.26,241.59,46.93z M249.29,46.93c0,6.45,4.8,11.49,11,11.49c6.11,0,10.95-5.04,10.95-11.49
		c0-6.35-4.9-11.49-11-11.49C254.09,35.45,249.29,40.58,249.29,46.93z"/>
	
		<linearGradient id="SVGID_00000175307245601639095520000008998905147567360403_" gradientUnits="userSpaceOnUse" x1="275.6681" y1="48.3969" x2="280.3165" y2="-4.2851">
		<stop  offset="0" style="stop-color:#FFDB00"/>
		<stop  offset="1" style="stop-color:#FF9E16"/>
	</linearGradient>
	<path style="fill:url(#SVGID_00000175307245601639095520000008998905147567360403_);" d="M292.13,22.37
		c-4.65-12.3-16.5-21.03-29.72-21.03v23.8c8.65,0.3,15.93,5.81,18.82,13.47c0.88,2.29,1.35,4.79,1.35,7.39
		c0,8.99-5.65,16.65-13.6,19.61c14.53-3.22,25.25-16.22,25.25-31.76C294.23,29.8,293.48,25.93,292.13,22.37z"/>
</g>
</svg>
