<?xml version="1.0" encoding="utf-8"?>
<!-- Generator: Adobe Illustrator 27.8.1, SVG Export Plug-In . SVG Version: 6.00 Build 0)  -->
<svg version="1.1" id="Layer_1" xmlns="http://www.w3.org/2000/svg" xmlns:xlink="http://www.w3.org/1999/xlink" x="0px" y="0px"
	 viewBox="0 0 672.9 157.54" style="enable-background:new 0 0 672.9 157.54;" xml:space="preserve">
<g>
	<g>
		<path d="M659.4,60.26c0.48,3.45,0.73,7,0.73,10.58c0,42.46-33.09,77.22-74.96,79.62c26.63,14.35,60.29,6.35,77.57-19.28
			C677.76,108.84,675.69,80.1,659.4,60.26z"/>
		<g>
			<g>
				<path d="M0.75,85.55c0-13.5,12.43-23.04,23.47-23.04c7.93,0,15.43,3,21.54,10.29l-13.07,9.54c-2.14-2.25-5.68-3.97-8.47-3.97
					c-4.39,0-7.39,2.68-7.39,7.07c0,3.64,2.68,6.97,11.15,7.5c13.61,0.86,24.86,10.07,24.86,25.5c0,15.54-12.97,26.68-27.01,26.68
					c-9.11,0-18.22-3.32-25.83-11.68l13.72-10.07c3.64,4.61,7.39,5.79,12.11,5.79c5.47,0,9.75-4.39,9.75-9.54
					c0-6.43-4.29-10.39-12-11.25C9.75,106.77,0.75,98.09,0.75,85.55z"/>
				<path d="M114.65,133.02H75.96l-5.14,10.72H53.67l42.12-81.23l42.22,81.23H119.9L114.65,133.02z M83.14,118.02h24.22L95.14,93.16
					L83.14,118.02z"/>
				<path d="M204.97,63.9h16.61v81.23l-56.8-47.26v45.87h-16.61V62.4l56.8,47.69V63.9z"/>
			</g>
			<path d="M298.34,63.9c23.04,0,41.79,17.15,41.79,39.86c0,22.93-18.75,39.97-41.69,39.97h-32.47V63.9H298.34z M298.44,128.74
				c13.82,0,24.65-10.61,24.65-24.97c0-14.47-10.82-24.86-24.76-24.86h-15.75v49.83H298.44z"/>
			<path d="M369.06,143.74h-16.61V63.9h16.61V143.74z"/>
			<path d="M386.07,143.74V63.9h41.57v15h-24.96v14.9h28.99v14.9h-28.99v20.04h32.9v15H386.07z"/>
			<path d="M525.94,103c0,23.58-18.43,42.54-41.36,42.54c-22.83,0-41.04-18.43-41.04-41.26c0-22.83,18.22-41.36,40.94-41.36
				c14.9,0,28.08,7.72,35.26,19.4l-13.29,9.65c-4.18-7.82-12.43-13.18-21.86-13.18c-13.4,0-24,11.36-24,25.5
				c0,14.04,10.61,25.29,24,25.29c9.65,0,18.54-4.93,22.08-14.25H485v-14.79h40.94V103z"/>
		</g>
		<g>
			<g>
				<path d="M6.4,31.99l4.79-0.73V5.81L4.86,6.29l-1.4,3.97L0.6,10.38l0.49-7.46h25.8l-0.04,7.36l-2.35,0.26l-1.34-4.25l-6.19-0.49
					v25.43l4.86,0.75v2.35H6.4V31.99z"/>
				<path d="M29.39,32.03l2.95-0.51V5.67l-3.06-0.97V2.33l7.71-0.93l1.09,0.4l-0.02,9.53l-0.28,2.69c0.61-0.53,1.25-0.97,1.92-1.34
					s1.35-0.66,2.03-0.89c0.68-0.23,1.34-0.39,1.98-0.5c0.64-0.1,1.22-0.15,1.75-0.15c1.42,0,2.57,0.23,3.45,0.69
					c0.88,0.46,1.57,1.14,2.07,2.03c0.5,0.9,0.83,2.01,0.99,3.35c0.16,1.34,0.24,2.87,0.22,4.61v9.69l2.87,0.51v2.31l-11.75-0.02
					v-2.29l3.14-0.53v-8.38c0-1.27-0.03-2.41-0.1-3.42c-0.07-1.01-0.24-1.87-0.51-2.57c-0.27-0.7-0.68-1.24-1.24-1.62
					c-0.56-0.38-1.33-0.57-2.32-0.57c-0.73,0-1.45,0.09-2.16,0.27c-0.72,0.18-1.4,0.51-2.04,0.98v15.32l2.41,0.51v2.31H29.39V32.03z
					"/>
				<path d="M57.97,23.37c0-1.73,0.28-3.34,0.83-4.84c0.55-1.5,1.34-2.8,2.38-3.89c1.03-1.1,2.28-1.97,3.74-2.61
					c1.46-0.64,3.11-0.97,4.93-0.98c1.44-0.01,2.7,0.18,3.78,0.58c1.08,0.4,1.98,0.96,2.7,1.7c0.72,0.74,1.27,1.63,1.65,2.67
					c0.38,1.04,0.59,2.21,0.65,3.49c0.03,0.85,0.01,1.6-0.06,2.24c-0.07,0.64-0.13,1.22-0.2,1.75H63.86c0,0.04,0,0.08,0.01,0.11
					c0.01,0.03,0.01,0.06,0.01,0.09c0.08,1.39,0.31,2.57,0.7,3.54c0.38,0.97,0.89,1.76,1.52,2.38c0.63,0.61,1.35,1.06,2.17,1.35
					c0.82,0.28,1.7,0.43,2.63,0.43c0.5,0,1.03-0.03,1.59-0.08c0.56-0.05,1.11-0.13,1.66-0.24c0.55-0.11,1.08-0.24,1.59-0.4
					c0.51-0.16,0.98-0.35,1.42-0.57l0.93,2.19c-0.46,0.39-1.03,0.75-1.72,1.08c-0.69,0.33-1.44,0.61-2.25,0.84
					c-0.81,0.23-1.66,0.4-2.56,0.53c-0.9,0.12-1.79,0.17-2.68,0.16c-1.74-0.01-3.29-0.29-4.64-0.83c-1.36-0.54-2.5-1.3-3.43-2.29
					c-0.93-0.98-1.64-2.18-2.11-3.59C58.21,26.74,57.97,25.15,57.97,23.37z M72.88,20.6c0.04-0.58,0.07-1.18,0.08-1.81
					c0.01-0.63-0.02-1.23-0.11-1.81c-0.09-0.58-0.25-1.11-0.49-1.6c-0.24-0.49-0.58-0.88-1.04-1.19c-0.28-0.19-0.61-0.34-0.99-0.45
					c-0.38-0.11-0.81-0.16-1.29-0.16c-0.8,0-1.49,0.18-2.09,0.55c-0.6,0.36-1.11,0.86-1.53,1.5c-0.42,0.63-0.75,1.38-1,2.24
					c-0.25,0.86-0.41,1.77-0.5,2.74H72.88z"/>
				<path d="M93.03,19.68c0-1.74,0.22-3.37,0.65-4.9s1.04-2.92,1.81-4.18c0.78-1.26,1.7-2.39,2.76-3.38s2.24-1.83,3.51-2.51
					c1.27-0.68,2.62-1.2,4.05-1.56c1.42-0.36,2.88-0.54,4.38-0.54c1.01,0,1.94,0.05,2.78,0.16c0.84,0.11,1.61,0.23,2.31,0.38
					c0.69,0.14,1.33,0.29,1.89,0.45c0.57,0.15,1.08,0.28,1.54,0.37l-0.38,7h-3.32l-1.29-3.8c-0.27-0.24-0.55-0.45-0.85-0.63
					c-0.3-0.18-0.64-0.32-1.04-0.44c-0.4-0.11-0.86-0.2-1.39-0.26c-0.53-0.06-1.15-0.09-1.88-0.09c-1.25,0-2.44,0.27-3.56,0.82
					c-1.12,0.55-2.1,1.34-2.93,2.39c-0.84,1.05-1.5,2.33-1.98,3.86c-0.49,1.53-0.73,3.28-0.73,5.25c0,1.21,0.09,2.4,0.27,3.56
					c0.18,1.16,0.45,2.26,0.82,3.29c0.36,1.03,0.82,1.98,1.36,2.85c0.54,0.87,1.17,1.62,1.88,2.24c0.72,0.63,1.51,1.12,2.39,1.47
					c0.88,0.35,1.84,0.53,2.89,0.53c0.84,0,1.56-0.05,2.17-0.15c0.61-0.1,1.14-0.24,1.59-0.41c0.45-0.18,0.81-0.38,1.1-0.63
					c0.29-0.24,0.53-0.51,0.72-0.79l1.44-3.64h2.75v6.62c-0.5,0.03-1.04,0.14-1.63,0.33c-0.59,0.2-1.28,0.41-2.09,0.64
					c-0.81,0.23-1.76,0.44-2.85,0.63c-1.09,0.19-2.39,0.28-3.88,0.28c-2.37,0-4.5-0.38-6.38-1.15c-1.88-0.77-3.48-1.83-4.79-3.19
					c-1.32-1.36-2.32-2.96-3.01-4.83C93.38,23.87,93.03,21.86,93.03,19.68z"/>
				<path d="M122.65,32.03l3.04-0.53V17.22l-2.67-2.29v-1.62l6.98-2.16l1.36,0.47v19.93l3.08,0.49v2.31h-11.78V32.03z M127.81,7.08
					c-0.45,0-0.88-0.07-1.29-0.22c-0.42-0.15-0.79-0.36-1.11-0.64c-0.32-0.28-0.58-0.61-0.78-1.01c-0.2-0.4-0.29-0.85-0.29-1.35
					c0-0.55,0.12-1.07,0.36-1.54c0.24-0.47,0.56-0.88,0.96-1.22s0.84-0.61,1.34-0.81c0.49-0.2,0.98-0.29,1.47-0.29
					c0.61,0,1.13,0.09,1.56,0.26c0.43,0.18,0.79,0.41,1.07,0.7c0.28,0.29,0.49,0.63,0.63,1.03c0.13,0.4,0.2,0.82,0.2,1.27
					c0,0.58-0.12,1.11-0.35,1.58c-0.24,0.47-0.55,0.87-0.93,1.2c-0.38,0.33-0.82,0.59-1.32,0.77
					C128.83,6.99,128.33,7.08,127.81,7.08z"/>
				<path d="M139.73,14.85h-3.07v-1.96c0.46-0.1,0.87-0.19,1.24-0.27c0.37-0.09,0.7-0.19,0.99-0.3c0.29-0.11,0.55-0.25,0.79-0.41
					c0.24-0.16,0.45-0.38,0.64-0.65c0.16-0.2,0.33-0.49,0.52-0.85c0.18-0.36,0.36-0.77,0.55-1.21c0.18-0.45,0.36-0.92,0.53-1.42
					c0.17-0.5,0.32-0.99,0.46-1.48h2.79v5.4h6.86v3.16h-6.68v8.6c0,1.7,0.03,3.06,0.09,4.09c0.06,1.02,0.18,1.81,0.36,2.37
					c0.18,0.55,0.43,0.92,0.74,1.09c0.31,0.18,0.72,0.26,1.23,0.26c0.3,0,0.63-0.02,1-0.07c0.37-0.05,0.73-0.11,1.08-0.18
					c0.35-0.07,0.68-0.16,0.98-0.26c0.3-0.1,0.54-0.2,0.72-0.31l0.87,2.08c-0.31,0.34-0.74,0.65-1.27,0.93
					c-0.54,0.28-1.14,0.53-1.81,0.73c-0.67,0.2-1.37,0.36-2.1,0.48c-0.74,0.11-1.46,0.17-2.17,0.17c-0.99,0-1.81-0.13-2.49-0.39
					c-0.67-0.26-1.22-0.67-1.64-1.21c-0.42-0.55-0.72-1.24-0.91-2.09c-0.19-0.85-0.28-1.86-0.28-3.03V14.85z"/>
				<path d="M157.54,40.5c0.41,0.07,0.86,0.09,1.35,0.08c0.39,0,0.84-0.07,1.34-0.21c0.5-0.14,1-0.43,1.52-0.87
					c0.51-0.44,1.01-1.07,1.5-1.89c0.49-0.82,0.9-1.92,1.25-3.28h-0.99l-8.03-19.2l-1.9-0.46v-2.97h10.76v2.97l-2.57,0.51
					l4.31,11.98l0.75,3.07l0.87-3.07l3.64-12.06l-2.93-0.43v-2.97h9.61v2.97l-2.12,0.38c-0.96,2.58-1.8,4.83-2.53,6.76
					c-0.73,1.93-1.36,3.6-1.89,5.01c-0.53,1.41-0.98,2.6-1.35,3.56c-0.36,0.96-0.67,1.77-0.92,2.41c-0.25,0.64-0.45,1.15-0.6,1.54
					c-0.15,0.38-0.28,0.71-0.38,0.98c-0.57,1.48-1.14,2.8-1.71,3.97c-0.57,1.16-1.19,2.15-1.85,2.96c-0.66,0.82-1.39,1.46-2.19,1.92
					c-0.8,0.46-1.69,0.74-2.69,0.82c-0.57,0.07-1.17,0.09-1.82,0.06c-0.3-0.03-0.59-0.06-0.88-0.1c-0.29-0.04-0.5-0.1-0.62-0.18
					l0.02-4.45C156.78,40.37,157.13,40.44,157.54,40.5z"/>
				<path d="M189.01,25.45c-0.04-1.91,0.22-3.75,0.78-5.51c0.56-1.76,1.37-3.32,2.43-4.67c1.06-1.35,2.34-2.44,3.83-3.25
					c1.5-0.81,3.17-1.21,5.02-1.21c1.36,0,2.57,0.21,3.61,0.63c1.05,0.42,1.93,1.03,2.64,1.82c0.72,0.8,1.26,1.77,1.64,2.92
					c0.38,1.15,0.59,2.47,0.63,3.94c0.03,1.27-0.08,2.51-0.31,3.73c-0.24,1.22-0.6,2.37-1.08,3.46c-0.49,1.09-1.09,2.08-1.8,2.99
					c-0.72,0.91-1.52,1.69-2.43,2.35c-0.9,0.65-1.9,1.17-2.98,1.54c-1.09,0.37-2.24,0.56-3.47,0.56c-1.36,0-2.56-0.21-3.6-0.63
					c-1.04-0.42-1.92-1.02-2.63-1.81c-0.72-0.79-1.26-1.76-1.64-2.91C189.26,28.23,189.05,26.92,189.01,25.45z M198.32,32.21
					c0.69,0,1.31-0.18,1.85-0.54c0.55-0.36,1.03-0.84,1.45-1.45c0.42-0.61,0.77-1.31,1.06-2.12c0.29-0.81,0.53-1.66,0.71-2.56
					c0.18-0.9,0.31-1.81,0.37-2.75c0.07-0.94,0.09-1.84,0.08-2.72c-0.04-2.25-0.34-3.92-0.91-5.01c-0.57-1.09-1.42-1.63-2.57-1.63
					c-0.69,0-1.31,0.18-1.86,0.54c-0.55,0.36-1.04,0.84-1.47,1.44c-0.43,0.6-0.79,1.3-1.09,2.1c-0.3,0.8-0.55,1.65-0.74,2.55
					c-0.19,0.9-0.32,1.81-0.4,2.73c-0.08,0.92-0.11,1.82-0.08,2.68c0.05,2.27,0.36,3.95,0.92,5.07
					C196.2,31.65,197.09,32.21,198.32,32.21z"/>
				<path d="M216.18,14.14h-2.67l0.36-1.8l2.87-1.27l0.3-1.76c0.22-1.25,0.59-2.41,1.12-3.48c0.53-1.06,1.19-1.99,1.97-2.77
					c0.78-0.78,1.67-1.4,2.66-1.84s2.06-0.67,3.21-0.67c0.55,0,1.12,0.03,1.71,0.09c0.59,0.06,1.15,0.21,1.69,0.43l-1.23,3.5
					c-0.12-0.09-0.27-0.2-0.45-0.31c-0.18-0.11-0.38-0.22-0.61-0.32c-0.23-0.1-0.49-0.18-0.78-0.24c-0.29-0.06-0.61-0.09-0.96-0.09
					c-0.53,0-0.96,0.1-1.32,0.31c-0.35,0.21-0.64,0.52-0.88,0.94c-0.24,0.42-0.43,0.93-0.58,1.55c-0.15,0.61-0.28,1.33-0.4,2.16
					l-0.32,2.41h4.71l-0.38,3.18h-4.75l-2.53,20.7c-0.18,1.38-0.49,2.66-0.95,3.85c-0.46,1.19-1.06,2.24-1.8,3.13
					c-0.74,0.89-1.62,1.6-2.63,2.11c-1.01,0.52-2.16,0.78-3.44,0.78c-0.36,0-0.72-0.01-1.08-0.03c-0.36-0.02-0.69-0.05-1.01-0.08
					c-0.32-0.03-0.6-0.07-0.86-0.12c-0.26-0.05-0.47-0.09-0.63-0.13l1.11-3.56c0.07,0.03,0.23,0.09,0.49,0.19
					c0.26,0.1,0.55,0.2,0.88,0.3c0.33,0.1,0.67,0.19,1.01,0.26c0.34,0.07,0.64,0.11,0.88,0.11c0.66,0,1.19-0.38,1.6-1.15
					c0.4-0.77,0.7-1.85,0.89-3.24L216.18,14.14z"/>
			</g>
		</g>
		<path d="M534.13,103.77c0-22.83,18.43-41.26,41.26-41.26c22.93,0,41.37,18.43,41.37,41.26c0,22.83-18.43,41.36-41.26,41.36
			C552.56,145.13,534.13,126.59,534.13,103.77z M551.17,103.77c0,14.25,10.61,25.4,24.33,25.4c13.5,0,24.22-11.14,24.22-25.4
			c0-14.04-10.82-25.4-24.33-25.4C561.78,78.37,551.17,89.73,551.17,103.77z"/>
	</g>
</g>
<path d="M645.88,49.46c-10.29-27.2-36.49-46.5-65.7-46.5v52.61c19.12,0.67,35.22,12.84,41.6,29.78c1.94,5.06,2.99,10.58,2.99,16.34
	c0,19.87-12.49,36.81-30.08,43.35c32.12-7.11,55.82-35.87,55.82-70.22C650.51,65.89,648.87,57.33,645.88,49.46z"/>
</svg>
