<?xml version="1.0" encoding="UTF-8"?><svg id="Layer_1" xmlns="http://www.w3.org/2000/svg" viewBox="0 0 97.97 97.98"><defs><style>.cls-1{fill:#0097da;}</style></defs><path class="cls-1" d="m44.42,88.74c-6.7.43-12.88-1.41-18.84-4.03-4.5-1.98-8.35-4.88-11.96-8.27-5.04-4.73-8.36-10.48-10.99-16.7-1.23-2.91-2.01-6.03-2.17-9.24-.13-2.51-.49-5.02-.46-7.53.07-5.53,1.2-10.86,3.44-15.94,2.61-5.92,6.11-11.21,10.92-15.6,4.69-4.28,10.02-7.46,16.05-9.42,3.31-1.08,6.7-1.81,10.22-1.8,1.61,0,3.22-.23,4.82-.22,5.58.03,10.97,1.12,16.11,3.27,4.49,1.87,8.5,4.54,12.23,7.66,6.9,5.79,11.14,13.23,13.53,21.81.85,3.04,1.25,6.14,1.44,9.32.51,8.46-1.45,16.3-5.42,23.7-.72,1.34-1.61,2.58-2.34,3.91-.16.28-.08.93.14,1.15,3.59,3.63,7.23,7.22,10.85,10.82,1.63,1.63,3.32,3.21,4.83,4.95.59.68,1.05,1.71,1.09,2.6.1,2.1.08,4.24-.23,6.31-.26,1.78-1.05,2.21-2.82,2.29-.12,0-.25,0-.37,0-2.12-.01-4.48.54-6.31-.2-1.78-.72-3.04-2.75-4.51-4.22-3.98-3.97-7.97-7.94-11.92-11.95-.82-.83-1.32-1.04-2.45-.22-3.53,2.54-7.51,4.25-11.65,5.59-4.32,1.4-8.73,2.3-13.24,1.96Zm.32-13.94c16.35.72,29.82-14.2,30.26-28.99.57-18.9-14.14-31.6-29.68-32.11-17.76-.58-31.28,14.08-31.48,29.51-.14,10.41,3.74,18.55,11.51,25.04,5.4,4.5,11.71,6.69,19.39,6.55Z"/></svg>