<?xml version="1.0" encoding="utf-8"?>
<!-- Generator: Adobe Illustrator 27.9.0, SVG Export Plug-In . SVG Version: 6.00 Build 0)  -->
<svg version="1.1" id="Layer_1" xmlns="http://www.w3.org/2000/svg" xmlns:xlink="http://www.w3.org/1999/xlink" x="0px" y="0px"
	 viewBox="0 0 32 32" style="enable-background:new 0 0 32 32;" xml:space="preserve">
<path d="M28.7,7.2C28,6.2,27,5.1,26,4s-2.2-2-3.1-2.7C21.2,0.1,20.4,0,20,0H4.5C3.1,0,2,1.1,2,2.5v27C2,30.9,3.1,32,4.5,32h23
	c1.4,0,2.5-1.1,2.5-2.5V10C30,9.6,29.9,8.8,28.7,7.2z M24.5,5.5c1,1,1.7,1.8,2.3,2.5H22V3.2C22.7,3.7,23.6,4.5,24.5,5.5z M28,29.5
	c0,0.3-0.2,0.5-0.5,0.5h-23C4.2,30,4,29.8,4,29.5v-27C4,2.2,4.2,2,4.5,2C4.5,2,20,2,20,2v7c0,0.6,0.4,1,1,1h7V29.5z"/>
<path d="M23,26H9c-0.6,0-1-0.4-1-1s0.4-1,1-1h14c0.6,0,1,0.4,1,1S23.6,26,23,26z"/>
<path d="M23,22H9c-0.6,0-1-0.4-1-1s0.4-1,1-1h14c0.6,0,1,0.4,1,1S23.6,22,23,22z"/>
<path d="M23,18H9c-0.6,0-1-0.4-1-1s0.4-1,1-1h14c0.6,0,1,0.4,1,1S23.6,18,23,18z"/>
</svg>
