<?xml version="1.0" encoding="UTF-8"?>
<svg xmlns="http://www.w3.org/2000/svg" xmlns:xlink="http://www.w3.org/1999/xlink" version="1.1" viewBox="0 0 1046.2 159.1">
  <defs>
    <style>
      .cls-1 {
        fill: url(#linear-gradient-2);
      }

      .cls-2 {
        fill: url(#linear-gradient);
      }

      .cls-3 {
        fill: #fff;
      }
    </style>
    <linearGradient id="linear-gradient" x1="1048.3" y1="858.4" x2="910.1" y2="1003.2" gradientTransform="translate(0 -780.5)" gradientUnits="userSpaceOnUse">
      <stop offset=".1" stop-color="#2dbbae"/>
      <stop offset=".7" stop-color="#20a7c4"/>
      <stop offset="1" stop-color="#1799d5"/>
    </linearGradient>
    <linearGradient id="linear-gradient-2" x1="980.2" y1="886.4" x2="990.5" y2="769.8" gradientTransform="translate(0 -780.5)" gradientUnits="userSpaceOnUse">
      <stop offset="0" stop-color="#fdd900"/>
      <stop offset="1" stop-color="#f89c1f"/>
    </linearGradient>
  </defs>
  <!-- Generator: Adobe Illustrator 28.6.0, SVG Export Plug-In . SVG Version: 1.2.0 Build 709)  -->
  <g>
    <g id="Layer_1">
      <g>
        <g>
          <path class="cls-2" d="M1030.1,59.1c.5,3.4.7,7,.7,10.6,0,42.5-33.1,77.3-75,79.7,26.7,14.4,60.4,6.4,77.7-19.3,15-22.4,12.9-51.2-3.4-71h0Z"/>
          <g>
            <g>
              <path class="cls-3" d="M370.7,84.4c0-13.5,12.5-23.1,23.5-23.1s15.4,3,21.6,10.3l-13.1,9.6c-2.2-2.2-5.7-4-8.5-4-4.4,0-7.4,2.7-7.4,7.1s2.7,7,11.2,7.5c13.6.9,24.9,10.1,24.9,25.5s-13,26.7-27,26.7-18.2-3.3-25.9-11.7l13.7-10.1c3.7,4.6,7.4,5.8,12.1,5.8s9.8-4.4,9.8-9.5-4.3-10.4-12-11.3c-13.9-1.6-23-10.3-22.9-22.8h0Z"/>
              <path class="cls-3" d="M484.7,131.9h-38.7l-5.1,10.7h-17.3l42.2-81.3,42.3,81.3h-18.1l-5.3-10.7h0ZM453.2,116.9h24.2l-12.2-24.9-12,24.9Z"/>
              <path class="cls-3" d="M575.1,62.7h16.6v81.4l-56.8-47.4v45.9h-16.6V61.2l56.9,47.8v-46.3h0Z"/>
            </g>
            <path class="cls-3" d="M668.6,62.7c23.1,0,41.8,17.2,41.8,39.9s-18.8,40-41.7,40h-32.5V62.7h32.4ZM668.7,127.6c13.8,0,24.7-10.6,24.7-25s-10.8-24.9-24.8-24.9h-15.8v49.9h15.9Z"/>
            <path class="cls-3" d="M739.4,142.7h-16.6V62.8h16.6v79.9Z"/>
            <path class="cls-3" d="M756.4,142.7V62.8h41.6v15h-25v14.9h29v14.9h-29v20.1h32.9v15h-49.5Z"/>
            <path class="cls-3" d="M896.5,101.9c0,23.6-18.5,42.6-41.4,42.6s-41.1-18.5-41.1-41.3,18.2-41.4,41-41.4,28.1,7.7,35.3,19.4l-13.3,9.7c-4.2-7.8-12.5-13.2-21.9-13.2-13.4,0-24,11.4-24,25.5s10.6,25.3,24,25.3,18.6-4.9,22.1-14.3h-21.7v-14.8h41v2.5h0Z"/>
          </g>
          <path class="cls-3" d="M904.7,102.6c0-22.9,18.5-41.3,41.3-41.3s41.4,18.4,41.4,41.3-18.5,41.4-41.3,41.4-41.4-18.5-41.4-41.4h0ZM921.7,102.6c0,14.3,10.6,25.4,24.4,25.4s24.2-11.2,24.2-25.4-10.8-25.4-24.4-25.4-24.2,11.4-24.2,25.4Z"/>
        </g>
        <path class="cls-1" d="M1016.6,48.3c-10.3-27.2-36.5-46.6-65.8-46.6v52.7c19.1.7,35.3,12.9,41.7,29.8,1.9,5.1,3,10.6,3,16.4,0,19.9-12.5,36.9-30.1,43.4,32.2-7.1,55.9-35.9,55.9-70.3-.1-9-1.7-17.6-4.7-25.4h0Z"/>
      </g>
      <g>
        <path class="cls-3" d="M1.2,142.1V38.8h18.1v103.3H1.2Z"/>
        <path class="cls-3" d="M107.6,142.1h-23.4l-31.9-74.8h-.9c1.1,5.7,1.8,11.8,1.8,18.4v56.5h-17.8V38.8h23.5l31.6,74h.8c-.9-5-1.3-10.8-1.3-17.6v-56.3h17.6v103.3h0Z"/>
        <path class="cls-3" d="M167,113.6c0,9.7-2.4,17-7.3,22.2s-11.9,7.7-21.1,7.7-16.7-1.8-22.9-5.3v-19c7.7,5,14.8,7.5,21.3,7.5s6.5-1,8.3-3,2.8-4.8,2.8-8.3-1.1-6.6-3.3-9.4c-2.2-2.8-5.9-6-10.9-9.5-4.4-3.1-7.8-6-10.1-8.8-2.3-2.8-4-5.9-5.3-9.4-1.3-3.5-1.9-7.5-1.9-12.1,0-8.9,2.5-15.9,7.4-21,4.9-5.2,11.5-7.8,19.8-7.8s15.5,2.2,22.8,6.6l-6.3,15.4c-2.2-1.3-4.6-2.5-7.1-3.5-2.5-1-5.1-1.6-8-1.6s-5.5,1-7.2,3.1c-1.7,2.1-2.5,4.8-2.5,8.3s1,6.5,3,9.1c2,2.6,5.5,5.6,10.5,8.8,6.7,4.5,11.4,9.1,14.1,13.8,2.8,4.7,4.1,10.1,4.1,16.1h0Z"/>
        <path class="cls-3" d="M177.4,142.1V38.8h18.1v103.3h-18.1Z"/>
        <path class="cls-3" d="M277.2,89.5c0,17-3.5,30.1-10.4,39.1-6.9,9-16.9,13.5-29.9,13.5h-25.3V38.8h27.6c12,0,21.4,4.4,28,13.3,6.6,8.9,10,21.4,10,37.4ZM257.5,90.1c0-23.1-6.3-34.6-19.1-34.6h-7.7v69.8h6.2c7,0,12.2-3,15.5-8.8,3.4-5.8,5.1-14.6,5.1-26.4h0Z"/>
        <path class="cls-3" d="M333,142.1h-46.6V38.8h46.6v16.6h-27.4v24.6h25.4v16.7h-25.4v28.6h27.4v16.8h0Z"/>
      </g>
    </g>
  </g>
</svg>