<?xml version="1.0" encoding="UTF-8"?>
<svg xmlns="http://www.w3.org/2000/svg" xmlns:xlink="http://www.w3.org/1999/xlink" version="1.1" viewBox="0 0 676.3 299">
  <defs>
    <style>
      .cls-1 {
        fill: url(#linear-gradient-2);
      }

      .cls-2 {
        fill: url(#linear-gradient);
      }

      .cls-3 {
        fill: #00549f;
      }
    </style>
    <linearGradient id="linear-gradient" x1="678.5" y1="998.3" x2="540.2" y2="1143.1" gradientTransform="translate(0 -780.5)" gradientUnits="userSpaceOnUse">
      <stop offset=".1" stop-color="#2dbbae"/>
      <stop offset=".7" stop-color="#20a7c4"/>
      <stop offset="1" stop-color="#1799d5"/>
    </linearGradient>
    <linearGradient id="linear-gradient-2" x1="610.3" y1="1026.3" x2="620.6" y2="909.7" gradientTransform="translate(0 -780.5)" gradientUnits="userSpaceOnUse">
      <stop offset="0" stop-color="#fdd900"/>
      <stop offset="1" stop-color="#f89c1f"/>
    </linearGradient>
  </defs>
  <!-- Generator: Adobe Illustrator 28.6.0, SVG Export Plug-In . SVG Version: 1.2.0 Build 709)  -->
  <g>
    <g id="Layer_1">
      <g>
        <g>
          <path class="cls-2" d="M660.2,199c.5,3.4.7,7,.7,10.6,0,42.5-33.1,77.3-75,79.7,26.7,14.4,60.4,6.4,77.7-19.3,15-22.4,12.9-51.2-3.4-71h0Z"/>
          <g>
            <g>
              <path class="cls-3" d="M.8,224.3c0-13.5,12.5-23.1,23.5-23.1s15.4,3,21.6,10.3l-13.1,9.6c-2.2-2.2-5.7-4-8.5-4-4.4,0-7.4,2.7-7.4,7.1s2.7,7,11.2,7.5c13.6.9,24.9,10.1,24.9,25.5s-13,26.7-27,26.7-18.2-3.3-25.9-11.7l13.7-10.1c3.7,4.6,7.4,5.8,12.1,5.8s9.8-4.4,9.8-9.5-4.3-10.4-12-11.3c-13.9-1.6-23-10.3-22.9-22.8h0Z"/>
              <path class="cls-3" d="M114.8,271.8h-38.7l-5.1,10.7h-17.3l42.2-81.3,42.3,81.3h-18.1l-5.3-10.7h0ZM83.3,256.8h24.2l-12.2-24.9-12,24.9Z"/>
              <path class="cls-3" d="M205.2,202.6h16.6v81.4l-56.8-47.4v45.9h-16.6v-81.4l56.9,47.8v-46.3h0Z"/>
            </g>
            <path class="cls-3" d="M298.7,202.6c23.1,0,41.8,17.2,41.8,39.9s-18.8,40-41.7,40h-32.5v-79.9h32.4ZM298.8,267.5c13.8,0,24.7-10.6,24.7-25s-10.8-24.9-24.8-24.9h-15.8v49.9h15.9Z"/>
            <path class="cls-3" d="M369.5,282.6h-16.6v-79.9h16.6v79.9Z"/>
            <path class="cls-3" d="M386.5,282.6v-79.9h41.6v15h-25v14.9h29v14.9h-29v20.1h32.9v15h-49.5Z"/>
            <path class="cls-3" d="M526.6,241.8c0,23.6-18.5,42.6-41.4,42.6s-41.1-18.5-41.1-41.3,18.2-41.4,41-41.4,28.1,7.7,35.3,19.4l-13.3,9.7c-4.2-7.8-12.5-13.2-21.9-13.2-13.4,0-24,11.4-24,25.5s10.6,25.3,24,25.3,18.6-4.9,22.1-14.3h-21.7v-14.8h41v2.5h0Z"/>
          </g>
          <path class="cls-3" d="M534.8,242.5c0-22.9,18.5-41.3,41.3-41.3s41.4,18.4,41.4,41.3-18.5,41.4-41.3,41.4-41.4-18.5-41.4-41.4h0ZM551.8,242.5c0,14.3,10.6,25.4,24.4,25.4s24.2-11.2,24.2-25.4-10.8-25.4-24.4-25.4-24.2,11.4-24.2,25.4Z"/>
        </g>
        <path class="cls-1" d="M646.7,188.2c-10.3-27.2-36.5-46.6-65.8-46.6v52.7c19.1.7,35.3,12.9,41.7,29.8,1.9,5.1,3,10.6,3,16.4,0,19.9-12.5,36.9-30.1,43.4,32.2-7.1,55.9-35.9,55.9-70.3-.1-9-1.7-17.6-4.7-25.4h0Z"/>
      </g>
      <g>
        <path class="cls-3" d="M1.5,174V3h29.9v171H1.5Z"/>
        <path class="cls-3" d="M177.7,174h-38.8l-52.9-123.9h-1.5c1.9,9.4,2.9,19.6,2.9,30.4v93.5h-29.5V3h39l52.4,122.5h1.3c-1.5-8.2-2.2-17.9-2.2-29.2V3h29.2v171h0Z"/>
        <path class="cls-3" d="M276.1,126.8c0,16-4,28.2-12.1,36.7s-19.7,12.8-34.9,12.8-27.6-2.9-38-8.8v-31.4c12.8,8.3,24.5,12.5,35.2,12.5s10.7-1.7,13.7-5,4.6-7.9,4.6-13.7-1.8-10.9-5.5-15.6-9.7-9.9-18.1-15.7c-7.3-5.1-12.9-9.9-16.7-14.6-3.8-4.6-6.7-9.8-8.8-15.6-2.1-5.8-3.1-12.5-3.1-20.1,0-14.7,4.1-26.3,12.2-34.8,8.1-8.6,19.1-12.9,32.8-12.9s25.7,3.7,37.8,11l-10.5,25.5c-3.7-2.2-7.7-4.1-11.8-5.8s-8.5-2.6-13.2-2.6-9.1,1.7-11.9,5.1c-2.8,3.4-4.2,8-4.2,13.8s1.7,10.8,5,15.1c3.3,4.3,9.1,9.2,17.4,14.6,11.1,7.5,18.9,15.1,23.3,22.9,4.6,7.8,6.8,16.7,6.8,26.6h0Z"/>
        <path class="cls-3" d="M293.3,174V3h29.9v171h-29.9Z"/>
        <path class="cls-3" d="M458.6,86.9c0,28.2-5.8,49.8-17.2,64.7-11.5,14.9-28,22.4-49.6,22.4h-41.9V3h45.7c19.9,0,35.4,7.3,46.4,22,11,14.8,16.6,35.4,16.6,61.9ZM425.9,87.8c0-38.2-10.5-57.3-31.6-57.3h-12.8v115.6h10.3c11.6,0,20.2-4.9,25.7-14.6,5.7-9.6,8.4-24.2,8.4-43.7h0Z"/>
        <path class="cls-3" d="M550.9,174h-77.1V3h77.1v27.5h-45.3v40.7h42v27.6h-42v47.4h45.3v27.8h0Z"/>
      </g>
    </g>
  </g>
</svg>