<?xml version="1.0" encoding="utf-8"?>
<!-- Generator: Adobe Illustrator 27.8.1, SVG Export Plug-In . SVG Version: 6.00 Build 0)  -->
<svg version="1.1" id="Layer_1" xmlns="http://www.w3.org/2000/svg" xmlns:xlink="http://www.w3.org/1999/xlink" x="0px" y="0px"
	 viewBox="0 0 676.3 299" style="enable-background:new 0 0 676.3 299;" xml:space="preserve">
<style type="text/css">
	.st0{fill:url(#SVGID_1_);}
	.st1{fill:#FFFFFF;}
	.st2{fill:url(#SVGID_00000171714582811042949850000012582345375582077072_);}
</style>
<g>
	<g>
		
			<linearGradient id="SVGID_1_" gradientUnits="userSpaceOnUse" x1="678.4225" y1="81.6926" x2="540.1925" y2="-63.1174" gradientTransform="matrix(1 0 0 -1 0 299.45)">
			<stop  offset="0.11" style="stop-color:#2DBBAE"/>
			<stop  offset="0.65" style="stop-color:#20A7C4"/>
			<stop  offset="1" style="stop-color:#1799D5"/>
		</linearGradient>
		<path class="st0" d="M660.2,199c0.5,3.4,0.7,7,0.7,10.6c0,42.5-33.1,77.3-75,79.7c26.7,14.4,60.4,6.4,77.7-19.3
			C678.6,247.6,676.5,218.8,660.2,199L660.2,199z"/>
		<g>
			<g>
				<path class="st1" d="M0.8,224.3c0-13.5,12.5-23.1,23.5-23.1c7.9,0,15.4,3,21.6,10.3l-13.1,9.6c-2.2-2.2-5.7-4-8.5-4
					c-4.4,0-7.4,2.7-7.4,7.1c0,3.7,2.7,7,11.2,7.5c13.6,0.9,24.9,10.1,24.9,25.5s-13,26.7-27,26.7c-9.1,0-18.2-3.3-25.9-11.7
					l13.7-10.1c3.7,4.6,7.4,5.8,12.1,5.8c5.5,0,9.8-4.4,9.8-9.5c0-6.4-4.3-10.4-12-11.3C9.8,245.5,0.7,236.8,0.8,224.3L0.8,224.3z"
					/>
				<path class="st1" d="M114.8,271.8H76.1l-5.1,10.7H53.7l42.2-81.3l42.3,81.3h-18.1L114.8,271.8L114.8,271.8z M83.3,256.8h24.2
					l-12.2-24.9L83.3,256.8z"/>
				<path class="st1" d="M205.2,202.6h16.6V284L165,236.6v45.9h-16.6v-81.4l56.9,47.8V202.6L205.2,202.6z"/>
			</g>
			<path class="st1" d="M298.7,202.6c23.1,0,41.8,17.2,41.8,39.9s-18.8,40-41.7,40h-32.5v-79.9H298.7L298.7,202.6z M298.8,267.5
				c13.8,0,24.7-10.6,24.7-25c0-14.4-10.8-24.9-24.8-24.9h-15.8v49.9H298.8z"/>
			<path class="st1" d="M369.5,282.6h-16.6v-79.9h16.6V282.6z"/>
			<path class="st1" d="M386.5,282.6v-79.9h41.6v15h-25v14.9h29v14.9h-29v20.1h32.9v15L386.5,282.6L386.5,282.6z"/>
			<path class="st1" d="M526.6,241.8c0,23.6-18.5,42.6-41.4,42.6s-41.1-18.5-41.1-41.3s18.2-41.4,41-41.4c14.9,0,28.1,7.7,35.3,19.4
				l-13.3,9.7c-4.2-7.8-12.5-13.2-21.9-13.2c-13.4,0-24,11.4-24,25.5c0,14.2,10.6,25.3,24,25.3c9.7,0,18.6-4.9,22.1-14.3h-21.7
				v-14.8h41L526.6,241.8L526.6,241.8z"/>
		</g>
		<path class="st1" d="M534.8,242.5c0-22.9,18.5-41.3,41.3-41.3s41.4,18.4,41.4,41.3s-18.5,41.4-41.3,41.4S534.8,265.4,534.8,242.5
			L534.8,242.5z M551.8,242.5c0,14.3,10.6,25.4,24.4,25.4s24.2-11.2,24.2-25.4c0-14.3-10.8-25.4-24.4-25.4S551.8,228.5,551.8,242.5z
			"/>
	</g>
	
		<linearGradient id="SVGID_00000082341647694224666770000015411743137452878519_" gradientUnits="userSpaceOnUse" x1="610.2073" y1="53.6753" x2="620.4973" y2="170.2953" gradientTransform="matrix(1 0 0 -1 0 299.45)">
		<stop  offset="0" style="stop-color:#FDD900"/>
		<stop  offset="1" style="stop-color:#F89C1F"/>
	</linearGradient>
	<path style="fill:url(#SVGID_00000082341647694224666770000015411743137452878519_);" d="M646.7,188.2
		c-10.3-27.2-36.5-46.6-65.8-46.6v52.7c19.1,0.7,35.3,12.9,41.7,29.8c1.9,5.1,3,10.6,3,16.4c0,19.9-12.5,36.9-30.1,43.4
		c32.2-7.1,55.9-35.9,55.9-70.3C651.3,204.6,649.7,196,646.7,188.2L646.7,188.2z"/>
</g>
<g>
	<path class="st1" d="M1.5,174V3h29.9V174C31.4,174,1.5,174,1.5,174z"/>
	<path class="st1" d="M177.7,174h-38.8L86,50.1h-1.5c1.9,9.4,2.9,19.6,2.9,30.4V174H57.9V3h39l52.4,122.5h1.3
		c-1.5-8.2-2.2-17.9-2.2-29.2V3h29.2L177.7,174L177.7,174z"/>
	<path class="st1" d="M276.1,126.8c0,16-4,28.2-12.1,36.7c-8.1,8.5-19.7,12.8-34.9,12.8s-27.6-2.9-38-8.8v-31.4
		c12.8,8.3,24.5,12.5,35.2,12.5c6.1,0,10.7-1.7,13.7-5s4.6-7.9,4.6-13.7s-1.8-10.9-5.5-15.6c-3.7-4.7-9.7-9.9-18.1-15.7
		c-7.3-5.1-12.9-9.9-16.7-14.6c-3.8-4.6-6.7-9.8-8.8-15.6c-2.1-5.8-3.1-12.5-3.1-20.1c0-14.7,4.1-26.3,12.2-34.8
		c8.1-8.6,19.1-12.9,32.8-12.9s25.7,3.7,37.8,11l-10.5,25.5c-3.7-2.2-7.7-4.1-11.8-5.8s-8.5-2.6-13.2-2.6c-5.1,0-9.1,1.7-11.9,5.1
		c-2.8,3.4-4.2,8-4.2,13.8s1.7,10.8,5,15.1c3.3,4.3,9.1,9.2,17.4,14.6c11.1,7.5,18.9,15.1,23.3,22.9
		C273.9,108,276.1,116.9,276.1,126.8L276.1,126.8z"/>
	<path class="st1" d="M293.3,174V3h29.9V174H293.3z"/>
	<path class="st1" d="M458.6,86.9c0,28.2-5.8,49.8-17.2,64.7c-11.5,14.9-28,22.4-49.6,22.4h-41.9V3h45.7c19.9,0,35.4,7.3,46.4,22
		C453,39.8,458.6,60.4,458.6,86.9z M425.9,87.8c0-38.2-10.5-57.3-31.6-57.3h-12.8v115.6h10.3c11.6,0,20.2-4.9,25.7-14.6
		C423.2,121.9,425.9,107.3,425.9,87.8L425.9,87.8z"/>
	<path class="st1" d="M550.9,174h-77.1V3h77.1v27.5h-45.3v40.7h42v27.6h-42v47.4h45.3V174L550.9,174z"/>
</g>
</svg>
