<?xml version="1.0" encoding="utf-8"?>
<!-- Generator: Adobe Illustrator 27.8.1, SVG Export Plug-In . SVG Version: 6.00 Build 0)  -->
<svg version="1.1" id="Calque_1" xmlns="http://www.w3.org/2000/svg" xmlns:xlink="http://www.w3.org/1999/xlink" x="0px" y="0px"
	 viewBox="0 0 480 262.8" style="enable-background:new 0 0 480 262.8;" xml:space="preserve">
<style type="text/css">
	.st0{fill:#1B242A;}
	.st1{enable-background:new    ;}
	.st2{fill:#FFFFFF;}
</style>
<g id="red_square">
	<path class="st0" d="M0,237.3c0,14.1,14.3,25.5,31.9,25.5h416.2c17.6,0,31.9-11.4,31.9-25.5V25.5C480,11.4,465.7,0,448.1,0H31.9
		C14.3,0,0,11.4,0,25.5V237.3z"/>
</g>
<g class="st1">
	<path class="st2" d="M166.4,101.8c0,18.7-5.4,33.2-16.1,43.4c-10.7,10.2-25.9,15.3-45.7,15.3H92.3v55.7h-44V48.5h56.3
		c20.5,0,36,4.6,46.3,13.9C161.2,71.6,166.4,84.8,166.4,101.8z M92.3,123.6h8c6.6,0,11.8-1.9,15.7-5.7c3.9-3.8,5.8-9.1,5.8-15.8
		c0-11.3-6.1-17-18.2-17H92.3V123.6z"/>
	<path class="st2" d="M320.1,128.8c0,28-7.5,49.6-22.4,64.7s-36,22.7-63,22.7H182V48.5h56.3c26.1,0,46.3,6.9,60.5,20.7
		C313,82.9,320.1,102.8,320.1,128.8z M274.5,130.4c0-15.4-2.9-26.8-8.8-34.2c-5.9-7.4-14.9-11.1-26.9-11.1H226v94h9.8
		c13.4,0,23.1-4,29.4-12C271.4,159.1,274.5,146.8,274.5,130.4z"/>
	<path class="st2" d="M382.3,216.2H339V48.5h96.1v36.4h-52.8v32H431v36.4h-48.7V216.2z"/>
</g>
</svg>
